<?xml version="1.0" standalone="no"?>
<!DOCTYPE svg PUBLIC "-//W3C//DTD SVG 20010904//EN"
 "http://www.w3.org/TR/2001/REC-SVG-20010904/DTD/svg10.dtd">
<svg version="1.0" xmlns="http://www.w3.org/2000/svg"
 width="934.000000pt" height="934.000000pt" viewBox="0 0 934.000000 934.000000"
 preserveAspectRatio="xMidYMid meet">
<metadata>
Created by potrace 1.14, written by Peter Selinger 2001-2017
</metadata>
<g transform="translate(0.000000,934.000000) scale(0.100000,-0.100000)"
fill="#000000" stroke="none">
<path d="M5608 8154 c-4 -4 -137 -16 -208 -19 -50 -2 -237 -32 -250 -40 -3 -2
-23 -6 -45 -9 -22 -4 -58 -11 -80 -17 -22 -6 -51 -13 -65 -14 -86 -11 -542
-153 -655 -205 -80 -36 -330 -188 -371 -225 -6 -5 -26 -21 -44 -35 -133 -100
-272 -240 -342 -345 -61 -92 -127 -177 -140 -183 -5 -2 -8 -10 -8 -18 0 -8
-16 -31 -35 -53 -19 -21 -35 -42 -35 -45 0 -7 -58 -96 -69 -106 -16 -14 -89
-108 -99 -127 -7 -12 -18 -27 -24 -35 -16 -17 -58 -82 -83 -130 -26 -51 -119
-173 -190 -251 -33 -36 -71 -88 -85 -114 -36 -72 -93 -154 -147 -213 -26 -29
-61 -67 -77 -84 -15 -17 -40 -47 -54 -66 -15 -19 -31 -38 -36 -42 -5 -3 -41
-37 -81 -75 -75 -71 -160 -146 -210 -184 -16 -13 -43 -36 -60 -52 -16 -15 -61
-46 -100 -68 -38 -23 -102 -63 -142 -89 -116 -80 -238 -103 -319 -62 -21 11
-54 23 -72 27 -21 4 -32 12 -32 24 0 40 -33 124 -62 157 -42 47 -111 94 -140
94 -46 0 -124 -30 -151 -57 -15 -16 -43 -45 -62 -66 l-34 -39 -84 22 c-128 31
-201 9 -294 -90 -47 -49 -69 -64 -113 -75 -45 -11 -120 -43 -158 -68 -56 -38
-80 -50 -146 -71 -93 -30 -148 -85 -160 -161 -5 -31 -2 -43 15 -61 23 -25 16
-51 -21 -77 -25 -18 -42 -64 -35 -96 4 -21 18 -31 63 -49 32 -12 63 -22 69
-22 26 0 120 -35 139 -52 17 -15 20 -26 15 -56 -10 -54 -5 -89 18 -125 36 -58
49 -61 236 -63 173 -1 196 -3 275 -27 95 -29 239 -2 262 48 21 46 61 51 213
27 95 -15 141 1 171 60 30 58 38 62 157 72 59 5 93 33 108 89 8 29 7 42 -2 54
-7 8 -14 25 -16 36 -5 38 -9 41 -77 76 -36 18 -66 37 -66 41 0 12 35 39 70 54
38 15 104 24 222 31 99 5 294 17 343 20 55 4 159 17 166 21 8 4 102 15 170 19
94 5 181 17 299 40 88 17 117 22 185 30 107 14 257 65 275 95 3 5 19 11 36 14
26 5 150 64 179 86 6 4 26 11 45 15 19 4 40 10 45 13 6 4 15 7 20 8 6 1 38 18
73 38 34 19 61 32 59 28 -4 -6 -15 -32 -48 -107 -32 -75 -94 -299 -105 -380
-3 -27 -8 -59 -11 -70 -23 -107 -21 -456 2 -576 3 -13 7 -38 9 -56 3 -18 7
-40 10 -50 3 -10 8 -31 11 -48 3 -16 7 -34 9 -40 2 -5 6 -23 10 -40 13 -51 53
-167 82 -240 35 -87 145 -302 161 -314 5 -3 17 -23 27 -43 11 -21 23 -38 28
-38 4 0 8 -5 8 -10 0 -6 5 -16 10 -23 6 -7 38 -48 72 -92 95 -123 293 -318
423 -415 33 -25 66 -50 73 -57 6 -6 21 -15 32 -18 11 -3 20 -11 20 -16 0 -5 6
-9 14 -9 7 0 19 -7 26 -15 7 -9 28 -23 46 -31 19 -9 34 -20 34 -25 0 -5 9 -9
20 -9 11 0 20 -3 20 -7 0 -5 24 -19 53 -33 28 -14 58 -31 65 -37 7 -7 18 -13
24 -13 5 0 39 -14 74 -30 35 -17 65 -30 66 -29 2 0 30 -11 63 -26 33 -14 61
-26 63 -26 12 3 22 0 19 -6 -3 -5 9 -9 26 -10 17 -1 34 -7 37 -14 4 -6 10 -10
14 -10 37 5 58 -2 66 -21 6 -17 9 -19 9 -6 1 14 5 16 26 8 14 -5 25 -6 25 -3
0 4 5 2 12 -5 7 -7 22 -12 35 -12 13 0 23 -5 23 -12 0 -6 3 -8 7 -5 3 4 16 -1
27 -10 20 -17 20 -17 6 1 -14 18 -13 19 3 13 10 -4 20 -7 23 -7 2 0 1 -8 -3
-17 -5 -16 -4 -15 9 1 10 13 19 16 29 10 16 -10 20 -11 55 -13 17 -1 23 -5 18
-13 -5 -9 -2 -8 9 1 20 16 25 13 30 -19 2 -13 9 -26 15 -28 7 -2 10 -7 8 -11
-3 -4 1 -8 8 -8 8 0 12 6 9 14 -3 7 -10 13 -17 13 -6 0 -12 8 -13 19 -1 16 4
18 40 15 23 -3 58 -6 78 -8 20 -2 41 -6 48 -10 6 -4 11 -1 11 6 0 9 3 9 10 -2
5 -8 10 -12 10 -8 0 4 12 -5 27 -20 15 -15 26 -31 25 -36 -3 -10 17 -26 33
-26 6 1 3 6 -5 13 -17 13 -18 21 -6 55 7 22 8 23 23 5 8 -10 11 -12 8 -5 -5
10 -1 13 16 10 17 -2 24 -10 25 -27 1 -13 6 -26 12 -30 15 -9 19 -43 4 -48 -7
-3 -10 1 -6 10 7 20 -14 33 -29 17 -9 -9 -7 -15 7 -26 15 -10 16 -14 5 -14 -8
0 -20 5 -26 11 -12 12 -6 49 8 49 5 0 9 5 9 11 0 8 -5 8 -15 -1 -12 -10 -16
-8 -24 11 -5 13 -10 18 -10 11 -1 -7 5 -21 11 -32 17 -26 -3 -50 -25 -31 -12
9 -16 8 -21 -5 -3 -9 -4 -19 -1 -23 2 -4 -9 -8 -24 -8 -25 0 -28 3 -18 18 6
10 15 17 21 16 5 -1 11 7 13 18 3 18 2 18 -5 2 -4 -10 -11 -18 -15 -18 -21 2
-27 0 -24 -10 1 -6 -3 -13 -8 -15 -6 -2 -11 5 -12 16 -1 11 4 20 13 20 8 0 14
4 14 10 0 16 -23 7 -42 -17 -11 -13 -15 -28 -11 -40 6 -16 5 -16 -10 -4 -10 8
-16 18 -14 24 3 10 -44 69 -51 62 -2 -2 5 -14 17 -26 21 -23 27 -50 14 -63 -5
-4 -8 -13 -8 -19 0 -5 -6 -12 -14 -15 -9 -3 -11 0 -7 7 5 7 -3 20 -18 32 -23
18 -24 22 -12 35 20 20 28 18 21 -5 -7 -23 12 -38 28 -22 8 8 4 18 -13 36
l-23 25 -16 -23 c-9 -12 -15 -25 -13 -29 1 -5 -3 -8 -8 -8 -6 0 -10 -5 -10
-11 0 -8 4 -8 13 0 11 8 14 4 14 -20 0 -28 -2 -29 -13 -15 -10 14 -12 6 -10
-44 1 -38 -2 -59 -9 -57 -6 2 -10 37 -10 83 -1 66 2 82 19 96 10 10 14 18 9
18 -6 0 -16 -7 -23 -15 -13 -15 -30 -12 -30 6 0 6 4 7 10 4 6 -3 7 1 4 10 -5
11 -2 14 12 9 16 -6 17 -5 6 7 -11 12 -15 11 -26 -3 -10 -14 -15 -15 -26 -5
-8 7 -2 -5 14 -25 15 -21 23 -38 17 -38 -5 0 -13 5 -16 10 -3 6 -11 10 -16 10
-6 0 0 -10 13 -22 27 -27 40 -70 14 -49 -8 7 -18 21 -21 32 -6 19 -25 17 -25
-2 0 -6 5 -7 10 -4 6 3 10 1 10 -4 0 -6 -4 -11 -10 -11 -5 0 -10 -5 -10 -11 0
-8 6 -7 17 2 15 12 16 12 10 -4 -4 -10 -7 -21 -7 -23 0 -3 -4 -2 -10 1 -5 3
-10 1 -10 -4 0 -6 10 -10 21 -8 12 1 24 -3 26 -9 2 -7 -6 -10 -22 -9 -15 2
-23 -1 -19 -7 4 -6 1 -9 -7 -6 -10 3 -14 20 -13 52 0 28 -3 42 -8 34 -6 -10
-8 -10 -8 1 0 8 8 20 18 27 16 13 16 15 -4 31 -12 10 -24 26 -27 36 -6 15 -10
16 -27 5 -11 -7 -20 -16 -20 -21 0 -4 -6 -5 -12 -1 -7 4 -5 -1 4 -11 14 -15
20 -16 32 -6 11 10 19 9 35 -1 25 -15 26 -24 5 -32 -11 -4 -14 -13 -10 -31 5
-20 3 -23 -11 -19 -12 5 -11 1 5 -10 28 -21 28 -32 1 -39 -14 -4 -29 2 -46 19
-24 25 -25 25 -17 2 6 -20 5 -21 -10 -9 -10 9 -16 10 -16 2 0 -11 13 -15 38
-12 13 2 17 -15 5 -22 -5 -2 -2 -2 5 0 8 1 12 -3 10 -9 -3 -7 -13 -13 -23 -13
-10 0 -19 -6 -21 -13 -1 -7 0 -8 3 -2 2 5 9 10 14 10 6 0 7 -4 4 -10 -3 -5 -1
-10 4 -10 6 0 11 6 11 13 0 6 19 -7 41 -30 39 -42 69 -62 35 -24 -9 10 -15 24
-13 32 2 8 2 11 0 7 -9 -16 -22 -7 -20 12 1 11 6 19 12 17 5 -2 21 4 34 14 23
18 41 17 41 -1 0 -5 -6 -7 -13 -4 -8 3 -19 -1 -24 -8 -12 -15 -12 -58 0 -58 4
0 12 0 17 0 6 0 4 10 -5 23 -14 22 -12 37 7 37 4 0 7 -3 6 -7 -1 -5 2 -19 6
-32 7 -19 4 -28 -10 -38 -18 -13 -18 -15 5 -32 17 -13 22 -24 18 -37 -7 -18
-6 -18 8 0 14 18 13 21 -10 36 -23 15 -24 18 -10 30 11 9 14 22 10 39 -6 24
-6 25 12 9 10 -9 22 -17 26 -16 5 0 11 -3 14 -6 6 -6 -11 -8 -23 -3 -3 1 -10
-6 -16 -17 -8 -14 -7 -21 3 -27 19 -12 29 -11 29 2 0 5 5 7 10 4 6 -3 10 -1
10 4 0 6 5 11 11 11 5 0 7 -4 4 -10 -3 -5 -1 -10 5 -10 7 0 9 7 6 16 -3 9 -6
18 -6 20 0 3 -13 -4 -29 -16 -18 -12 -32 -16 -36 -10 -3 5 -1 10 4 10 6 0 20
9 31 20 20 20 20 20 39 1 11 -11 22 -17 25 -13 3 3 6 -1 6 -9 -1 -13 -16 -28
-65 -64 -11 -8 -15 -15 -9 -15 6 0 23 11 38 25 14 13 26 21 26 17 0 -4 9 8 21
27 11 18 23 31 26 28 8 -8 -39 -87 -49 -81 -4 3 -8 0 -8 -5 0 -36 61 37 64 75
1 24 7 30 19 18 3 -4 2 -16 -4 -27 -9 -15 -8 -18 2 -12 7 5 17 1 26 -10 7 -11
13 -15 14 -9 0 5 5 0 10 -11 7 -16 8 -13 5 13 -3 22 -1 32 7 29 7 -2 11 -13
10 -23 -2 -12 0 -14 4 -5 4 10 9 8 20 -10 10 -17 13 -18 8 -4 -13 37 -12 65 1
76 10 8 13 4 12 -18 -1 -45 1 -55 12 -48 6 3 10 -2 10 -12 1 -17 1 -17 11 0 6
9 14 15 20 12 5 -4 9 -2 9 4 0 5 -6 11 -12 14 -7 2 -10 8 -5 13 4 4 15 0 24
-9 13 -13 14 -19 4 -31 -8 -9 -17 -13 -22 -10 -5 3 -9 0 -9 -6 0 -7 7 -9 16
-6 16 6 44 -9 44 -24 0 -4 -9 -10 -21 -13 -12 -3 -18 -10 -14 -16 3 -7 -2 -11
-14 -11 -12 0 -20 6 -18 12 1 7 -8 14 -21 16 -12 2 -20 7 -17 12 3 4 -2 11
-10 14 -13 4 -14 2 -5 -14 6 -11 20 -20 30 -20 11 0 19 -6 17 -12 -1 -8 8 -13
23 -13 15 0 24 5 23 13 -2 6 3 12 10 12 6 0 19 4 26 9 12 8 11 13 -10 29 -13
11 -20 24 -16 28 4 5 12 2 17 -6 6 -10 10 -11 10 -3 0 7 -10 22 -22 33 -24 22
-34 64 -14 57 6 -2 11 -10 11 -18 0 -8 4 -14 8 -14 14 0 35 -48 29 -64 -3 -9
-1 -12 7 -7 7 5 9 17 5 29 -6 21 -5 21 12 5 14 -14 15 -20 4 -32 -7 -9 -8 -16
-2 -16 5 0 12 7 16 15 3 8 10 15 16 15 6 0 8 -5 5 -10 -3 -6 -1 -10 4 -10 6 0
11 4 11 9 0 5 12 8 28 5 17 -3 22 -1 14 4 -10 7 -4 14 22 30 37 22 52 12 16
-10 -24 -15 -25 -24 -5 -32 19 -7 47 3 39 15 -3 5 0 9 7 9 7 0 9 3 5 7 -4 5
-14 -1 -22 -11 -7 -11 -17 -16 -21 -12 -5 4 2 16 14 25 16 14 19 21 10 30 -8
8 -8 11 1 11 7 0 15 -7 18 -15 4 -8 10 -15 16 -15 5 0 6 4 3 10 -3 5 -2 10 3
10 6 0 13 -7 16 -16 9 -23 8 -24 -11 -17 -17 7 -17 6 0 -11 9 -9 17 -22 17
-27 0 -6 11 3 25 19 14 17 25 36 25 43 0 8 -9 -1 -21 -20 -11 -18 -23 -31 -26
-28 -3 4 4 21 15 38 20 32 60 47 73 26 4 -5 10 0 14 12 5 17 10 19 26 10 14
-7 18 -16 14 -30 -4 -11 -2 -19 5 -19 6 0 9 4 5 9 -3 5 -1 12 5 16 9 6 14 -7
11 -27 0 -5 4 -8 9 -8 16 0 12 18 -9 39 -14 14 -16 22 -8 30 14 14 30 15 22 1
-3 -5 1 -22 10 -37 13 -22 15 -23 12 -7 -2 12 0 29 5 38 7 13 5 23 -8 37 -9
10 -15 22 -12 25 9 8 48 -47 41 -59 -3 -6 -1 -7 5 -3 7 4 12 2 12 -3 0 -6 -7
-11 -15 -11 -8 0 -15 -4 -15 -10 0 -6 10 -5 25 2 l24 11 -20 29 c-12 16 -18
32 -14 36 3 4 11 0 15 -8 22 -36 28 -42 39 -36 6 4 9 22 6 40 -5 46 22 73 51
52 16 -13 17 -18 7 -35 -19 -30 -16 -39 4 -12 13 19 14 28 4 42 -7 12 -8 19
-1 19 6 0 13 -7 16 -15 4 -8 10 -12 15 -9 5 3 9 1 9 -5 0 -5 -5 -12 -10 -14
-6 -3 -5 -4 2 -3 7 2 13 15 12 29 -1 15 3 27 7 27 5 0 9 5 9 11 0 8 -5 8 -15
-1 -8 -7 -12 -16 -9 -21 3 -5 1 -9 -5 -9 -22 0 -20 20 5 39 15 12 22 21 17 21
-5 0 -19 -9 -32 -21 -12 -12 -25 -18 -29 -14 -4 4 3 15 16 25 12 10 22 21 22
25 0 4 -7 2 -15 -5 -13 -10 -19 -10 -35 5 -24 22 -27 13 -4 -10 9 -9 13 -19 9
-23 -4 -4 -15 4 -26 17 -10 13 -19 19 -19 14 0 -5 5 -14 12 -21 9 -9 9 -12 1
-12 -7 0 -15 5 -18 10 -4 6 -14 10 -23 8 -19 -3 -42 9 -42 21 0 12 52 66 64
66 5 0 11 7 13 15 4 12 3 12 -5 2 -5 -8 -13 -14 -18 -14 -11 0 -42 -17 -31
-18 4 0 -1 -8 -10 -18 -10 -11 -22 -17 -27 -14 -5 3 -6 0 -2 -6 3 -6 2 -13 -4
-17 -5 -3 -10 1 -10 9 0 9 -5 16 -10 16 -7 0 -7 -6 -1 -18 6 -11 6 -24 -1 -36
-8 -14 -6 -23 10 -38 22 -23 44 -17 35 10 -5 14 -4 15 8 4 11 -10 11 -16 0
-35 -11 -18 -11 -20 0 -10 18 18 25 16 25 -5 0 -14 -8 -19 -28 -19 -15 0 -25
4 -22 8 2 4 -10 21 -26 38 -27 26 -29 33 -20 52 9 16 9 24 0 33 -8 8 -9 6 -4
-9 7 -18 6 -18 -9 -6 -16 13 -15 15 8 37 14 13 35 28 46 34 11 6 17 15 14 21
-4 5 -2 9 4 9 5 0 12 -5 14 -10 3 -6 4 -5 3 2 -1 7 -12 14 -24 14 -18 1 -20
-2 -11 -12 9 -11 9 -14 0 -14 -6 0 -15 11 -20 23 -10 25 -51 31 -59 9 -2 -7
-9 -9 -14 -6 -7 4 -8 2 -4 -4 10 -16 26 -15 26 2 0 20 33 14 45 -9 8 -15 7
-24 -5 -36 -8 -8 -17 -14 -19 -12 -2 1 -14 -12 -27 -30 -15 -23 -19 -36 -12
-44 7 -9 7 -13 -1 -13 -6 0 -14 7 -17 15 -8 21 -31 19 -39 -4 -3 -10 -13 -18
-23 -17 -11 1 -16 -6 -16 -17 1 -10 -3 -16 -10 -14 -6 2 -11 9 -11 14 0 6 -3
15 -7 19 -11 11 -10 34 2 34 5 0 9 -6 7 -13 -3 -15 35 -10 45 6 4 7 5 23 3 36
-5 28 12 54 28 44 6 -3 7 -1 3 6 -4 6 -11 9 -16 6 -5 -3 -21 2 -35 11 -20 13
-23 19 -14 30 24 30 -3 12 -34 -21 -29 -32 -56 -48 -42 -25 3 6 1 10 -4 10 -6
0 -11 -4 -11 -9 0 -5 -12 -8 -26 -5 -14 3 -32 0 -40 -7 -11 -9 -18 -8 -29 1
-8 7 -15 8 -15 4 0 -5 9 -15 20 -22 11 -6 17 -18 14 -25 -6 -18 -41 -19 -41
-1 0 9 6 13 14 10 8 -4 11 -1 8 5 -4 6 -13 8 -20 5 -10 -3 -12 6 -9 35 2 23
-1 39 -7 39 -6 0 -8 -4 -5 -9 4 -5 0 -12 -6 -14 -10 -4 -10 -6 0 -6 6 -1 12
-9 12 -18 0 -14 -2 -15 -9 -4 -6 9 -8 3 -7 -18 1 -18 7 -35 13 -39 9 -5 6 -12
-9 -21 -18 -11 -20 -11 -15 1 3 8 1 21 -4 29 -7 12 -9 12 -10 -1 -1 -8 -1 -19
0 -23 1 -5 -3 -6 -9 -2 -5 3 -10 1 -10 -6 0 -7 -2 -10 -5 -7 -8 7 16 58 27 58
4 0 8 5 8 11 0 8 -4 8 -15 -1 -15 -12 -35 -6 -35 11 0 6 4 8 9 5 19 -12 41 6
37 29 -3 13 1 26 7 29 7 2 4 5 -6 5 -13 1 -16 -5 -13 -23 3 -14 -1 -27 -9 -29
-20 -8 -52 19 -50 42 2 27 15 40 15 15 0 -11 3 -15 8 -8 11 16 93 15 110 -2 8
-8 17 -12 20 -9 4 3 0 10 -7 14 -9 6 -4 10 16 13 23 3 32 -1 40 -19 8 -16 8
-23 0 -23 -6 0 -8 -2 -5 -5 8 -8 38 6 38 17 0 5 -4 7 -9 4 -5 -3 -12 1 -15 10
-9 24 -8 26 17 12 12 -7 25 -11 30 -10 12 4 8 -16 -5 -21 -10 -4 -10 -6 0 -6
7 -1 15 6 18 14 4 8 11 12 17 8 6 -3 7 -1 3 5 -3 6 -15 9 -26 7 -11 -2 -20 0
-20 5 0 5 12 8 28 6 15 -1 35 1 44 6 12 6 20 3 27 -9 8 -15 10 -15 11 -3 0 22
50 25 50 4 0 -14 -3 -14 -15 -4 -9 7 -15 8 -15 2 0 -5 7 -13 16 -16 11 -4 18
1 21 14 3 11 6 20 7 20 0 1 18 3 39 6 31 5 37 3 38 -13 1 -13 3 -11 9 7 4 14
8 19 9 13 1 -7 6 -13 12 -13 5 0 8 4 4 9 -3 6 4 8 15 6 11 -2 20 1 20 6 0 6 4
7 10 4 5 -3 18 -1 28 4 13 7 23 6 32 -2 8 -8 11 -8 7 -1 -7 12 34 24 86 26 15
0 27 3 27 7 0 7 23 12 67 15 11 0 19 5 15 10 -3 5 2 7 11 3 10 -4 17 -1 17 6
0 9 3 8 9 -1 6 -11 10 -10 15 4 3 9 9 14 13 11 3 -4 14 -2 25 4 15 8 23 7 33
-8 13 -17 14 -16 8 6 -4 16 -3 22 5 17 6 -3 14 -1 17 5 4 5 13 8 20 5 7 -2 16
2 19 11 4 9 9 13 13 10 3 -3 18 0 34 8 15 8 36 16 46 18 26 4 248 114 311 154
29 18 55 33 59 33 3 0 21 11 39 25 18 14 36 25 39 25 4 0 24 13 45 30 21 17
43 30 49 30 6 0 11 4 11 8 0 5 30 30 67 58 63 45 285 259 343 329 142 171 299
430 353 580 8 22 26 72 40 110 28 75 72 244 82 310 3 23 7 52 10 65 23 119 23
443 0 559 -2 14 -7 47 -10 74 -3 28 -8 53 -10 57 -2 4 -7 22 -10 41 -7 39 -13
59 -55 189 -17 52 -40 114 -51 137 -10 24 -19 45 -19 48 0 4 -18 43 -41 88
l-41 82 33 25 c89 69 178 170 231 265 27 48 67 139 73 165 1 3 5 16 8 30 16
60 20 91 22 191 2 62 -3 137 -11 181 -47 250 -219 474 -455 593 -70 36 -175
73 -225 80 -16 2 -45 6 -64 9 -19 3 -59 7 -88 10 -29 3 -56 8 -61 10 -4 3 -27
6 -52 8 -40 2 -51 9 -118 74 -40 40 -112 99 -160 130 -104 70 -103 69 -154
118 -71 67 -156 130 -324 239 -165 108 -238 149 -284 160 -14 4 -36 16 -50 28
-22 20 -94 56 -255 129 -51 23 -109 42 -136 44 -3 1 -10 4 -14 9 -4 4 -16 7
-26 7 -10 0 -18 5 -18 10 0 6 -9 10 -19 10 -11 0 -22 4 -25 9 -5 7 -118 45
-351 117 -50 16 -207 29 -217 18z m322 -5899 c0 -2 -3 -10 -6 -19 -5 -12 -10
-13 -25 -5 -26 14 -24 24 6 25 14 1 25 0 25 -1z m440 -76 c0 -14 -18 -11 -23
4 -4 8 -6 9 -6 0 -1 -6 5 -18 12 -25 20 -22 19 -46 -4 -58 -12 -7 -19 -8 -15
-2 3 5 -1 15 -9 22 -17 14 -20 30 -5 30 6 0 10 -6 10 -14 0 -8 6 -16 14 -19
11 -5 11 0 -2 23 -12 21 -20 26 -29 18 -9 -7 -13 -7 -13 1 0 6 7 14 15 17 8 4
15 10 15 16 0 5 -11 1 -24 -9 -21 -16 -22 -20 -9 -40 11 -16 12 -27 4 -41 -8
-16 -7 -21 6 -26 9 -4 13 -9 9 -13 -3 -3 2 -16 11 -27 10 -12 14 -18 9 -14 -5
4 -18 1 -30 -7 -26 -19 -33 -19 -33 0 0 8 7 14 16 13 10 -2 16 5 17 21 1 23 1
24 -12 6 -8 -10 -17 -16 -20 -12 -4 4 -1 14 7 24 9 11 10 14 2 9 -7 -4 -13 -2
-13 3 0 6 5 11 11 11 8 0 7 6 -2 17 -12 15 -12 16 4 10 16 -6 16 -5 1 18 -9
14 -23 24 -32 23 -8 -2 -17 2 -19 9 -3 8 4 10 20 8 16 -3 31 3 47 20 21 22 24
23 46 8 13 -8 24 -19 24 -24z m-840 -4 c-7 -8 -17 -15 -23 -15 -5 0 -2 9 8 20
21 23 35 19 15 -5z m676 -10 c-11 -8 -15 -15 -10 -15 6 0 11 -7 11 -15 0 -22
-20 -13 -23 10 -4 25 3 35 24 35 15 -1 15 -2 -2 -15z m-196 -5 c0 -5 -4 -10
-10 -10 -5 0 -10 5 -10 10 0 6 5 10 10 10 6 0 10 -4 10 -10z m224 -24 c-1 -9
2 -16 7 -16 5 0 9 7 9 15 0 8 4 15 10 15 7 0 8 -74 1 -98 -2 -8 -41 20 -41 30
0 6 6 5 17 -3 15 -13 15 -12 -1 12 -22 34 -29 72 -13 66 7 -2 11 -12 11 -21z
m-484 4 c0 -5 -4 -10 -10 -10 -5 0 -10 5 -10 10 0 6 5 10 10 10 6 0 10 -4 10
-10z m76 1 c-3 -5 5 -16 19 -25 14 -9 25 -12 25 -7 0 5 11 8 24 7 13 0 22 -4
20 -8 -2 -3 1 -8 8 -10 9 -3 9 -6 1 -11 -6 -4 -19 1 -29 10 -16 16 -17 16 -11
1 5 -14 1 -16 -26 -12 -18 3 -39 6 -47 6 -8 1 -19 6 -23 12 -6 7 -7 5 -4 -6 3
-9 -1 -19 -8 -22 -9 -3 -12 -12 -8 -23 5 -14 3 -16 -7 -6 -8 7 -10 19 -5 30 5
10 9 21 9 25 2 15 17 20 30 9 17 -14 29 0 20 23 -3 9 -1 16 6 16 6 0 9 -4 6
-9z m145 -8 c8 -8 8 -16 -1 -30 -10 -16 -11 -16 -7 5 3 14 1 20 -5 15 -7 -4
-8 -1 -3 7 5 9 4 11 -3 6 -8 -5 -8 -15 -1 -33 7 -19 6 -29 -2 -37 -9 -8 -10
-7 -4 2 6 11 3 12 -12 3 -11 -6 -23 -8 -26 -5 -3 3 -4 -2 -2 -13 1 -10 8 -17
15 -15 6 1 9 -2 5 -7 -3 -6 -13 -7 -22 -4 -11 4 -14 3 -9 -5 4 -7 14 -12 22
-12 11 0 10 -4 -3 -18 -20 -21 -40 -18 -23 3 8 9 8 15 0 20 -6 3 -8 11 -5 16
4 5 0 9 -7 9 -11 0 -10 2 0 9 26 16 -18 22 -48 6 -37 -19 -41 -19 -34 3 5 13
4 14 -4 3 -5 -7 -12 -9 -15 -4 -4 6 5 15 20 22 22 10 25 10 19 -5 -5 -13 -3
-14 6 -7 7 5 31 9 53 8 54 -3 70 10 50 41 -8 13 -15 25 -15 28 0 9 51 -1 61
-11z m63 -9 c-17 -8 -20 -12 -8 -9 16 4 22 1 20 -11 -1 -22 37 -23 79 -3 17 9
37 15 45 14 8 -1 23 -3 33 -3 27 -3 20 -19 -8 -19 -16 0 -22 4 -18 11 4 6 -2
4 -12 -4 -15 -12 -17 -12 -10 -1 5 10 4 12 -4 7 -6 -4 -8 -12 -5 -18 5 -7 1
-9 -9 -5 -8 3 -21 -1 -28 -9 -9 -11 -14 -12 -19 -3 -4 6 -13 8 -19 5 -6 -4 -9
-12 -6 -17 4 -5 1 -9 -5 -9 -6 0 -9 -4 -6 -8 2 -4 1 -14 -3 -21 -6 -9 -11 -10
-15 -2 -4 6 -3 11 2 11 5 0 8 8 7 18 -3 33 -16 49 -38 48 -17 -1 -21 -7 -19
-25 1 -17 -2 -22 -13 -17 -13 4 -13 2 -5 -14 14 -27 12 -34 -5 -20 -8 7 -15
10 -15 6 0 -16 3 -21 12 -18 5 1 8 -3 6 -10 -3 -7 -11 -13 -19 -13 -8 0 -13
-8 -11 -16 1 -9 -4 -22 -12 -28 -8 -7 -12 -20 -9 -29 5 -14 3 -15 -7 -5 -11
10 -10 16 3 36 12 19 13 27 4 37 -9 10 -9 11 1 6 6 -4 13 -2 13 3 4 39 1 56
-10 53 -7 -1 -10 2 -6 7 3 6 12 8 20 5 9 -4 22 6 34 26 20 34 70 71 85 62 5
-3 -4 -11 -20 -18z m91 16 c3 -5 1 -10 -4 -10 -6 0 -11 5 -11 10 0 6 2 10 4
10 3 0 8 -4 11 -10z m351 -41 c1 -8 2 -19 3 -25 0 -6 13 -24 29 -39 15 -16 22
-25 15 -22 -20 12 -26 -13 -8 -33 13 -15 14 -22 5 -37 -9 -14 -11 -15 -6 -1 3
9 -5 27 -19 42 -20 22 -21 25 -6 31 14 6 13 9 -8 26 -13 10 -20 19 -16 19 4 0
0 11 -8 24 -16 24 -12 39 7 33 6 -2 12 -10 12 -18z m82 9 c7 -7 22 -13 34 -13
12 0 23 -7 26 -15 5 -13 3 -13 -11 -1 -11 9 -17 10 -17 2 0 -6 3 -11 8 -11 4
0 8 -25 8 -55 1 -45 -2 -53 -13 -44 -7 7 -10 17 -5 23 10 15 8 36 -8 69 -10
20 -18 26 -32 21 -14 -4 -17 -1 -12 13 5 15 4 15 -5 3 -7 -11 -6 -19 6 -32 9
-10 11 -18 6 -18 -22 0 -35 28 -23 49 12 24 21 26 38 9z m-833 -8 c3 -5 -1
-10 -9 -10 -9 0 -16 5 -16 10 0 6 4 10 9 10 6 0 13 -4 16 -10z m719 -30 c10 0
14 -5 11 -10 -4 -6 -11 -8 -16 -5 -5 4 -12 -1 -15 -9 -3 -9 -10 -13 -16 -10
-5 3 -4 11 3 20 6 8 9 14 5 14 -3 0 -9 0 -13 0 -5 0 -8 -5 -8 -12 0 -6 -6 -13
-13 -16 -10 -3 -9 4 3 29 16 29 19 31 30 16 7 -9 20 -17 29 -17z m-425 -2 c9
-18 10 -19 6 -3 -5 15 -3 17 5 9 9 -9 9 -17 0 -34 -10 -18 -9 -24 1 -30 16
-11 35 -3 37 15 1 8 3 22 4 30 1 10 5 12 13 5 9 -7 16 -6 25 5 7 8 16 12 22 9
5 -3 14 -2 21 3 21 15 44 9 75 -19 17 -15 32 -25 34 -22 3 2 5 -3 5 -11 0 -21
-14 -19 -29 4 -11 18 -13 18 -25 3 -10 -13 -12 -13 -8 -2 3 8 -3 20 -14 27
-17 11 -19 10 -16 -7 2 -13 -2 -20 -11 -20 -11 0 -14 7 -10 23 3 12 3 16 0 9
-3 -6 -10 -10 -15 -6 -12 7 -7 -19 6 -29 6 -5 4 -7 -5 -4 -8 2 -14 9 -13 14 1
5 -4 10 -12 10 -8 0 -12 -8 -10 -19 3 -12 -1 -18 -8 -15 -7 2 -10 13 -9 23 2
10 1 16 -2 13 -12 -12 -15 -50 -4 -43 6 4 8 3 5 -3 -4 -6 -17 -9 -30 -8 -16 2
-23 -2 -23 -16 0 -10 2 -16 5 -14 6 7 36 -38 33 -48 -1 -5 2 -6 7 -3 5 3 14
-1 21 -9 9 -11 8 -14 -9 -12 -12 1 -24 10 -27 20 -5 16 -8 17 -16 6 -7 -10 -8
-8 -3 7 6 24 -13 37 -42 28 -16 -5 -16 -4 -2 5 16 10 21 73 7 87 -4 3 -5 -12
-3 -34 3 -41 -13 -61 -37 -45 -7 3 -8 1 -4 -5 4 -7 3 -12 -2 -12 -6 0 -13 7
-16 16 -3 8 -2 12 3 9 5 -3 12 -1 16 5 4 6 11 8 16 5 5 -3 7 8 5 25 -2 17 1
33 6 36 5 3 6 14 3 25 -9 26 9 24 24 -3z m642 5 c12 -15 12 -16 -3 -10 -10 3
-20 2 -23 -3 -4 -6 -11 -10 -17 -10 -6 0 -3 9 7 20 22 24 19 24 36 3z m-920
-17 c9 -19 18 -24 43 -22 17 2 41 8 53 14 28 16 28 16 30 -10 1 -13 7 -24 12
-26 12 -4 -9 -42 -22 -42 -4 0 -6 4 -2 9 3 6 -3 15 -12 21 -16 10 -16 11 4 7
20 -4 21 -2 12 14 -5 10 -15 19 -22 19 -8 0 -7 -3 2 -9 10 -7 8 -9 -10 -8 -13
0 -33 -4 -43 -8 -15 -6 -17 -5 -11 5 5 9 4 11 -4 6 -6 -4 -9 -12 -6 -17 4 -5
1 -9 -4 -9 -6 0 -11 5 -11 11 0 6 -9 22 -20 36 -11 14 -20 20 -20 13 0 -7 -3
-11 -6 -7 -8 7 4 27 17 27 5 0 14 -11 20 -24z m-97 -2 c5 -14 4 -15 -9 -4 -17
14 -19 20 -6 20 5 0 12 -7 15 -16z m50 -26 c-4 -7 -3 -8 4 -4 7 4 12 2 12 -3
0 -6 5 -11 12 -11 9 0 9 3 0 12 -18 18 -15 33 3 18 9 -7 14 -19 11 -26 -8 -20
23 -25 54 -9 33 17 44 19 35 6 -3 -6 2 -14 11 -19 9 -5 16 -13 15 -18 0 -5 15
-8 34 -7 l35 2 -21 -30 c-12 -17 -24 -28 -27 -25 -2 3 1 12 7 20 9 11 9 16 -1
22 -7 4 -10 4 -6 -1 4 -4 3 -14 -3 -22 -9 -10 -8 -17 1 -28 7 -8 8 -15 3 -15
-15 0 -32 22 -27 35 3 7 -8 17 -24 24 -16 7 -29 19 -29 27 0 17 14 19 20 2 2
-7 8 -9 13 -5 10 9 -16 28 -31 23 -5 -2 -9 -9 -7 -16 2 -7 -5 -9 -20 -5 -18 5
-20 4 -8 -4 18 -13 18 -13 -43 -16 -29 -1 -51 3 -58 11 -6 8 -16 11 -22 7 -6
-3 -7 -1 -3 6 4 6 13 8 19 4 17 -11 87 -13 87 -2 0 15 -22 22 -31 8 -12 -21
-24 -2 -25 44 -2 30 1 36 8 24 5 -10 6 -22 2 -29z m676 32 c0 -5 -4 -10 -10
-10 -5 0 -10 5 -10 10 0 6 5 10 10 10 6 0 10 -4 10 -10z m-175 -30 c-3 -5 -1
-11 4 -14 5 -4 13 -1 16 4 5 8 13 6 26 -6 17 -16 33 -20 77 -23 7 -1 11 -5 7
-10 -3 -5 9 -3 26 6 29 14 32 14 55 -8 22 -21 24 -21 18 -4 -7 20 -7 20 15 1
15 -14 25 -16 32 -9 8 8 7 13 -2 18 -8 5 -10 4 -5 -3 4 -7 3 -12 -3 -12 -14 0
-23 18 -12 24 14 9 41 -4 41 -19 0 -20 -24 -35 -39 -25 -15 9 -44 2 -37 -9 6
-10 -36 -8 -51 2 -19 12 -16 23 8 24 18 2 19 0 7 -15 -11 -15 -11 -15 3 -5 9
7 19 9 24 5 4 -4 1 3 -6 16 -15 23 -29 29 -29 11 0 -5 -4 -8 -9 -4 -6 3 -13 0
-18 -7 -11 -18 -46 -20 -39 -2 3 7 0 16 -6 20 -7 4 -8 3 -4 -5 10 -15 -14 -10
-33 7 -7 7 -20 11 -27 8 -8 -3 -14 0 -14 7 0 8 -3 8 -8 2 -13 -19 -72 -57 -72
-46 0 6 9 15 21 22 14 7 18 14 11 21 -12 12 -35 1 -27 -12 3 -5 1 -11 -4 -14
-5 -3 -12 2 -16 12 -13 30 -14 43 -2 35 7 -4 24 -8 39 -9 21 -1 26 2 23 17 -2
11 0 17 6 14 5 -4 7 -10 4 -15z m262 6 c-3 -6 -10 -10 -16 -8 -6 1 -11 -2 -11
-8 0 -15 16 -12 30 5 7 8 17 12 23 8 5 -3 -3 -13 -19 -21 -35 -19 -54 -23 -68
-14 -15 9 -56 10 -56 0 0 -4 -7 -5 -15 -2 -21 8 -9 24 15 19 13 -3 17 1 13 11
-3 8 0 14 6 14 6 0 11 -5 11 -11 0 -8 4 -8 14 0 17 14 31 -1 21 -21 -4 -7 1
-4 9 6 9 11 16 23 16 26 0 4 7 7 15 7 9 0 14 -5 12 -11z m-879 -36 c5 -13 3
-13 -11 -1 -14 11 -17 11 -18 0 -1 -8 -1 -18 0 -22 1 -5 -4 -7 -10 -5 -7 2
-13 13 -14 25 -1 15 4 20 23 19 14 -1 28 -8 30 -16z m551 -36 c13 -30 14 -45
1 -24 -9 13 -10 13 -10 0 0 -13 -1 -13 -10 0 -14 21 -12 33 3 24 6 -4 8 -3 4
2 -10 11 -58 14 -51 2 3 -4 10 -5 16 -2 8 5 9 1 5 -10 -4 -9 -3 -15 2 -12 4 3
13 -7 20 -22 10 -24 8 -23 -24 10 -36 39 -46 64 -20 55 8 -4 17 -2 20 3 9 14
31 1 44 -26z m81 -4 c-17 -32 3 -49 30 -25 11 10 20 13 20 7 0 -16 -77 -65
-89 -57 -7 3 -8 0 -5 -9 5 -12 0 -14 -22 -10 -36 6 -41 11 -27 25 6 6 9 18 6
26 -3 7 -2 13 3 12 21 -4 34 2 32 14 -2 7 5 11 15 9 10 -2 16 3 15 10 -2 7 3
12 10 11 6 -2 12 2 12 9 0 6 3 9 6 6 3 -4 0 -16 -6 -28z m50 15 c7 -8 16 -13
20 -10 5 3 11 -4 15 -15 3 -11 15 -25 26 -31 11 -5 17 -15 13 -20 -3 -6 -11
-3 -18 7 -7 9 -18 14 -25 10 -7 -5 -15 4 -22 23 -6 18 -18 31 -27 31 -13 0
-14 -2 -4 -9 10 -6 10 -10 -3 -21 -22 -18 -28 -7 -14 24 14 30 22 32 39 11z
m-462 -24 c23 -14 -12 -35 -37 -21 -12 6 -21 13 -21 16 0 3 4 3 9 -1 5 -3 12
-1 16 5 7 12 16 12 33 1z m202 -12 c13 -10 13 -10 -1 -6 -12 4 -15 -2 -14 -24
2 -31 -2 -34 -24 -20 -9 6 -10 11 -2 15 6 4 11 12 11 17 0 6 -6 7 -12 3 -9 -5
-9 -2 1 9 16 20 21 20 41 6z m330 -1 c0 -10 3 -9 9 1 5 8 11 9 15 3 8 -14 -8
-24 -28 -16 -18 7 -22 24 -6 24 6 0 10 -6 10 -12z"/>
<path d="M6190 2076 c0 -2 8 -10 18 -17 15 -13 16 -12 3 4 -13 16 -21 21 -21
13z"/>
<path d="M5830 1956 c0 -2 7 -7 16 -10 8 -3 12 -2 9 4 -6 10 -25 14 -25 6z"/>
<path d="M6156 1914 c-15 -14 -25 -29 -21 -32 3 -3 12 4 21 16 16 24 35 30 30
10 -1 -7 -1 -10 1 -5 3 4 10 4 16 0 7 -4 5 2 -3 13 -8 10 -15 20 -15 21 -1 1
-13 -9 -29 -23z"/>
<path d="M7866 2498 c3 -5 10 -6 15 -3 13 9 11 12 -6 12 -8 0 -12 -4 -9 -9z"/>
<path d="M4546 2458 c3 -5 10 -6 15 -3 13 9 11 12 -6 12 -8 0 -12 -4 -9 -9z"/>
<path d="M7326 2458 c3 -5 10 -6 15 -3 13 9 11 12 -6 12 -8 0 -12 -4 -9 -9z"/>
<path d="M3996 2433 c-6 -14 -5 -15 5 -6 7 7 10 15 7 18 -3 3 -9 -2 -12 -12z"/>
<path d="M4874 2442 c4 -3 14 -7 22 -8 9 -1 13 0 10 4 -4 3 -14 7 -22 8 -9 1
-13 0 -10 -4z"/>
<path d="M4935 2440 c-3 -5 -1 -10 4 -10 6 0 11 5 11 10 0 6 -2 10 -4 10 -3 0
-8 -4 -11 -10z"/>
<path d="M4975 2441 c-3 -5 -2 -12 3 -15 5 -3 9 1 9 9 0 17 -3 19 -12 6z"/>
<path d="M7215 2440 c3 -5 8 -10 11 -10 2 0 4 5 4 10 0 6 -5 10 -11 10 -5 0
-7 -4 -4 -10z"/>
<path d="M4796 2427 c3 -10 9 -15 12 -12 3 3 0 11 -7 18 -10 9 -11 8 -5 -6z"/>
<path d="M7375 2431 c-3 -5 -2 -12 3 -15 5 -3 9 1 9 9 0 17 -3 19 -12 6z"/>
<path d="M4576 2418 c3 -5 10 -6 15 -3 13 9 11 12 -6 12 -8 0 -12 -4 -9 -9z"/>
<path d="M4699 2428 c-5 -18 -6 -38 -1 -34 7 8 12 36 6 36 -2 0 -4 -1 -5 -2z"/>
<path d="M7310 2419 c0 -5 5 -7 10 -4 6 3 10 8 10 11 0 2 -4 4 -10 4 -5 0 -10
-5 -10 -11z"/>
<path d="M7455 2420 c3 -5 8 -10 11 -10 2 0 4 5 4 10 0 6 -5 10 -11 10 -5 0
-7 -4 -4 -10z"/>
<path d="M7539 2428 c-5 -18 -6 -38 -1 -34 7 8 12 36 6 36 -2 0 -4 -1 -5 -2z"/>
<path d="M7636 2407 c3 -10 9 -15 12 -12 3 3 0 11 -7 18 -10 9 -11 8 -5 -6z"/>
<path d="M5075 2403 c3 -3 0 -11 -5 -18 -7 -8 -5 -12 4 -12 14 0 16 22 3 32
-4 3 -5 2 -2 -2z"/>
<path d="M7496 2398 c3 -5 10 -6 15 -3 13 9 11 12 -6 12 -8 0 -12 -4 -9 -9z"/>
<path d="M7153 2385 c0 -8 4 -12 9 -9 5 3 6 10 3 15 -9 13 -12 11 -12 -6z"/>
<path d="M8030 2396 c0 -2 8 -10 18 -17 15 -13 16 -12 3 4 -13 16 -21 21 -21
13z"/>
<path d="M4590 2379 c0 -5 5 -7 10 -4 6 3 10 8 10 11 0 2 -4 4 -10 4 -5 0 -10
-5 -10 -11z"/>
<path d="M4640 2380 c-9 -6 -10 -10 -3 -10 6 0 15 5 18 10 8 12 4 12 -15 0z"/>
<path d="M4970 2380 c0 -5 5 -10 11 -10 5 0 7 5 4 10 -3 6 -8 10 -11 10 -2 0
-4 -4 -4 -10z"/>
<path d="M5010 2381 c0 -6 4 -13 10 -16 6 -3 7 1 4 9 -7 18 -14 21 -14 7z"/>
<path d="M7276 2382 c-3 -5 1 -9 9 -9 8 0 12 4 9 9 -3 4 -7 8 -9 8 -2 0 -6 -4
-9 -8z"/>
<path d="M7345 2380 c-3 -6 1 -7 9 -4 18 7 21 14 7 14 -6 0 -13 -4 -16 -10z"/>
<path d="M7386 2382 c-2 -4 4 -8 14 -8 10 0 16 4 14 8 -3 4 -9 8 -14 8 -5 0
-11 -4 -14 -8z"/>
<path d="M5195 2371 c-3 -5 -2 -12 3 -15 5 -3 9 1 9 9 0 17 -3 19 -12 6z"/>
<path d="M7613 2365 c0 -8 4 -12 9 -9 5 3 6 10 3 15 -9 13 -12 11 -12 -6z"/>
<path d="M4430 2360 c0 -5 5 -10 11 -10 5 0 7 5 4 10 -3 6 -8 10 -11 10 -2 0
-4 -4 -4 -10z"/>
<path d="M4515 2359 c-3 -4 2 -6 10 -5 21 3 28 13 10 13 -9 0 -18 -4 -20 -8z"/>
<path d="M7073 2350 c-1 -11 2 -20 7 -20 4 0 7 7 6 15 -3 23 -12 26 -13 5z"/>
<path d="M3910 2356 c0 -2 8 -10 18 -17 15 -13 16 -12 3 4 -13 16 -21 21 -21
13z"/>
<path d="M4349 2343 c-13 -16 -12 -17 4 -4 16 13 21 21 13 21 -2 0 -10 -8 -17
-17z"/>
<path d="M4789 2343 c-13 -16 -12 -17 4 -4 16 13 21 21 13 21 -2 0 -10 -8 -17
-17z"/>
<path d="M4836 2347 c3 -10 9 -15 12 -12 3 3 0 11 -7 18 -10 9 -11 8 -5 -6z"/>
<path d="M4953 2347 c0 -8 6 -14 14 -14 9 0 10 4 2 14 -6 7 -12 13 -14 13 -1
0 -2 -6 -2 -13z"/>
<path d="M5059 2348 c15 -21 31 -23 31 -6 0 6 -3 8 -7 5 -3 -4 -13 -1 -22 6
-14 11 -14 10 -2 -5z"/>
<path d="M6943 2344 c9 -11 15 -23 12 -26 -3 -2 2 -5 10 -5 10 0 12 4 5 12 -5
7 -6 16 -2 21 4 5 3 6 -2 2 -5 -4 -16 -2 -25 4 -12 10 -12 7 2 -8z"/>
<path d="M4715 2341 c-3 -5 -2 -12 3 -15 5 -3 9 1 9 9 0 17 -3 19 -12 6z"/>
<path d="M4866 2342 c-3 -5 1 -9 9 -9 8 0 12 4 9 9 -3 4 -7 8 -9 8 -2 0 -6 -4
-9 -8z"/>
<path d="M4990 2340 c0 -5 9 -8 20 -7 21 1 18 10 -5 13 -8 1 -15 -2 -15 -6z"/>
<path d="M5144 2338 c-4 -7 -2 -8 5 -4 6 4 18 3 25 -3 9 -8 13 -7 13 2 0 16
-34 20 -43 5z"/>
<path d="M7113 2326 l-18 -21 24 20 c13 11 25 19 28 17 3 -2 7 -2 9 1 2 2 -3
4 -11 4 -8 0 -23 -10 -32 -21z"/>
<path d="M7550 2341 c0 -6 4 -13 10 -16 6 -3 7 1 4 9 -7 18 -14 21 -14 7z"/>
<path d="M5335 2330 c-3 -6 1 -7 9 -4 18 7 21 14 7 14 -6 0 -13 -4 -16 -10z"/>
<path d="M6912 2327 c-8 -10 -6 -13 7 -13 11 0 17 6 14 13 -3 7 -6 13 -8 13
-1 0 -7 -6 -13 -13z"/>
<path d="M7876 2327 c3 -10 9 -15 12 -12 3 3 0 11 -7 18 -10 9 -11 8 -5 -6z"/>
<path d="M5264 2308 c0 -10 1 -18 3 -18 1 0 7 8 12 18 7 13 6 19 -2 19 -7 0
-13 -9 -13 -19z"/>
<path d="M7696 2318 c3 -5 10 -6 15 -3 13 9 11 12 -6 12 -8 0 -12 -4 -9 -9z"/>
<path d="M7735 2321 c-3 -5 -2 -12 3 -15 5 -3 9 1 9 9 0 17 -3 19 -12 6z"/>
<path d="M7816 2318 c3 -4 11 -5 19 -1 21 7 19 12 -4 10 -11 0 -18 -5 -15 -9z"/>
<path d="M4675 2300 c2 -27 10 -33 12 -10 1 11 -2 22 -6 24 -4 3 -7 -4 -6 -14z"/>
<path d="M5089 2303 c-13 -16 -12 -17 4 -4 16 13 21 21 13 21 -2 0 -10 -8 -17
-17z"/>
<path d="M5195 2309 c-4 -6 -5 -12 -2 -15 2 -3 7 2 10 11 7 17 1 20 -8 4z"/>
<path d="M5396 2297 c2 -11 6 -22 10 -26 4 -3 4 2 0 13 -4 13 -2 17 7 13 8 -3
14 0 14 7 0 6 -8 12 -18 12 -11 0 -16 -7 -13 -19z"/>
<path d="M7135 2311 c-3 -5 -2 -12 3 -15 5 -3 9 1 9 9 0 17 -3 19 -12 6z"/>
<path d="M4580 2306 c0 -2 8 -10 18 -17 15 -13 16 -12 3 4 -13 16 -21 21 -21
13z"/>
<path d="M4815 2301 c-3 -5 -2 -12 3 -15 5 -3 9 1 9 9 0 17 -3 19 -12 6z"/>
<path d="M4973 2295 c0 -8 4 -12 9 -9 4 3 8 9 8 15 0 5 -4 9 -8 9 -5 0 -9 -7
-9 -15z"/>
<path d="M5326 2302 c-3 -5 1 -9 9 -9 8 0 12 4 9 9 -3 4 -7 8 -9 8 -2 0 -6 -4
-9 -8z"/>
<path d="M6710 2301 c0 -6 4 -12 8 -15 5 -3 9 1 9 9 0 8 -4 15 -9 15 -4 0 -8
-4 -8 -9z"/>
<path d="M6754 2293 c-10 -7 -13 -13 -7 -13 7 0 15 5 18 10 4 6 10 8 15 5 5
-3 11 -2 14 3 8 13 -19 10 -40 -5z"/>
<path d="M6830 2301 c0 -6 4 -13 10 -16 6 -3 7 1 4 9 -7 18 -14 21 -14 7z"/>
<path d="M6990 2298 c0 -4 9 -7 20 -5 29 5 33 13 5 13 -14 0 -25 -4 -25 -8z"/>
<path d="M7273 2303 c4 -3 1 -13 -6 -22 -11 -14 -10 -14 5 -2 16 12 16 31 1
31 -4 0 -3 -3 0 -7z"/>
<path d="M5530 2291 c0 -6 4 -13 10 -16 6 -3 7 1 4 9 -7 18 -14 21 -14 7z"/>
<path d="M7110 2296 c0 -2 8 -10 18 -17 15 -13 16 -12 3 4 -13 16 -21 21 -21
13z"/>
<path d="M4256 2282 c-3 -4 4 -9 15 -9 23 -2 25 3 4 10 -8 4 -16 3 -19 -1z"/>
<path d="M4376 2282 c-3 -5 1 -9 9 -9 8 0 12 4 9 9 -3 4 -7 8 -9 8 -2 0 -6 -4
-9 -8z"/>
<path d="M4415 2280 c3 -5 8 -10 11 -10 2 0 4 5 4 10 0 6 -5 10 -11 10 -5 0
-7 -4 -4 -10z"/>
<path d="M5376 2278 c5 -7 2 -9 -8 -6 -8 4 -15 0 -15 -7 0 -10 5 -11 19 -4 16
9 17 29 2 29 -3 0 -2 -5 2 -12z"/>
<path d="M6619 2288 c-7 -33 -7 -48 0 -53 5 -3 13 0 17 6 4 7 3 9 -4 5 -7 -4
-10 1 -9 14 1 21 12 27 20 10 3 -6 4 -5 3 2 -2 10 -25 25 -27 16z"/>
<path d="M6679 2269 c-6 -13 -7 -19 -1 -15 6 3 12 1 14 -6 5 -14 38 -20 38 -6
0 6 -6 8 -14 5 -8 -3 -17 1 -20 9 -9 22 -7 26 6 18 7 -4 8 -3 4 4 -10 16 -14
15 -27 -9z"/>
<path d="M6868 2283 c7 -3 16 -2 19 1 4 3 -2 6 -13 5 -11 0 -14 -3 -6 -6z"/>
<path d="M7160 2280 c-9 -6 -10 -10 -3 -10 6 0 15 5 18 10 8 12 4 12 -15 0z"/>
<path d="M7695 2280 c-3 -5 -1 -10 4 -10 6 0 11 5 11 10 0 6 -2 10 -4 10 -3 0
-8 -4 -11 -10z"/>
<path d="M7730 2279 c0 -5 5 -7 10 -4 6 3 10 8 10 11 0 2 -4 4 -10 4 -5 0 -10
-5 -10 -11z"/>
<path d="M7770 2280 c0 -5 5 -10 11 -10 5 0 7 5 4 10 -3 6 -8 10 -11 10 -2 0
-4 -4 -4 -10z"/>
<path d="M7875 2279 c-3 -4 2 -6 10 -5 21 3 28 13 10 13 -9 0 -18 -4 -20 -8z"/>
<path d="M4995 2270 c-4 -6 -10 -8 -14 -6 -4 3 -8 -1 -8 -9 0 -13 4 -12 19 2
18 16 22 23 14 23 -3 0 -8 -5 -11 -10z"/>
<path d="M5020 2276 c0 -2 7 -7 16 -10 8 -3 12 -2 9 4 -6 10 -25 14 -25 6z"/>
<path d="M5093 2267 c0 -8 6 -14 14 -14 9 0 10 4 2 14 -6 7 -12 13 -14 13 -1
0 -2 -6 -2 -13z"/>
<path d="M5476 2273 c-4 -5 -12 -9 -17 -9 -5 -1 -13 -2 -19 -3 -5 0 -10 -6
-10 -12 0 -8 4 -9 13 0 8 6 16 9 19 6 3 -3 11 1 18 10 13 15 10 21 -4 8z"/>
<path d="M6590 2271 c0 -7 -4 -9 -10 -6 -6 3 -7 -1 -4 -10 5 -11 2 -14 -10 -9
-9 3 -16 4 -16 1 0 -3 7 -7 15 -11 15 -5 42 30 31 42 -3 3 -6 0 -6 -7z"/>
<path d="M6794 2271 c4 -5 0 -11 -6 -14 -7 -3 -3 -4 8 -4 21 1 23 27 2 27 -5
0 -7 -4 -4 -9z"/>
<path d="M7050 2267 c-20 -16 -22 -34 -5 -34 7 0 11 7 7 15 -3 9 -1 13 5 9 5
-3 10 0 10 8 0 8 -1 15 -1 15 -1 0 -8 -6 -16 -13z"/>
<path d="M7091 2264 c0 -11 3 -14 6 -6 3 7 2 16 -1 19 -3 4 -6 -2 -5 -13z"/>
<path d="M7235 2270 c-4 -6 -10 -8 -14 -6 -4 3 -8 -1 -8 -9 0 -13 4 -12 19 2
18 16 22 23 14 23 -3 0 -8 -5 -11 -10z"/>
<path d="M7415 2270 c-4 -6 -11 -8 -16 -5 -5 4 -9 1 -9 -4 0 -16 16 -13 30 4
7 8 10 15 7 15 -3 0 -9 -5 -12 -10z"/>
<path d="M4755 2259 c5 -7 52 -6 59 2 3 2 -10 5 -29 5 -18 0 -32 -3 -30 -7z"/>
<path d="M4837 2252 c-15 -16 -15 -19 -2 -19 8 0 13 3 10 5 -3 3 0 11 6 19 17
20 5 16 -14 -5z"/>
<path d="M5193 2253 c0 -9 4 -10 12 -3 7 5 15 7 18 3 4 -3 7 -1 7 5 0 6 -8 10
-18 9 -10 0 -19 -7 -19 -14z"/>
<path d="M5501 2253 c-5 -10 -13 -17 -18 -15 -4 2 -9 -2 -11 -10 -2 -9 0 -8 7
2 6 8 11 11 11 5 0 -5 8 -1 16 10 14 19 16 19 25 2 6 -9 15 -14 21 -11 7 5 9
1 5 -9 -3 -10 -2 -17 4 -17 6 0 9 7 7 16 -2 8 -7 14 -12 14 -5 -1 -13 5 -18
14 -12 21 -25 20 -37 -1z"/>
<path d="M5631 2254 c0 -11 3 -14 6 -6 3 7 2 16 -1 19 -3 4 -6 -2 -5 -13z"/>
<path d="M5695 2260 c-3 -5 -1 -10 4 -10 6 0 11 5 11 10 0 6 -2 10 -4 10 -3 0
-8 -4 -11 -10z"/>
<path d="M6737 2253 c3 -7 6 -13 8 -13 2 0 5 6 8 13 3 8 -1 14 -8 14 -7 0 -11
-6 -8 -14z"/>
<path d="M6842 2258 c-15 -15 -15 -28 0 -28 6 0 8 3 5 7 -4 3 -2 12 4 20 14
16 7 17 -9 1z"/>
<path d="M6968 2259 c-20 -11 -24 -29 -7 -29 5 0 7 5 3 12 -5 7 -2 9 8 6 9 -4
15 0 15 8 0 8 -1 14 -1 14 -1 0 -9 -5 -18 -11z"/>
<path d="M7011 2254 c0 -11 3 -14 6 -6 3 7 2 16 -1 19 -3 4 -6 -2 -5 -13z"/>
<path d="M7313 2252 c-8 -14 -8 -19 1 -19 7 0 13 9 13 19 1 10 1 18 0 18 -1 0
-7 -8 -14 -18z"/>
<path d="M7474 2262 c4 -3 14 -7 22 -8 9 -1 13 0 10 4 -4 3 -14 7 -22 8 -9 1
-13 0 -10 -4z"/>
<path d="M7553 2255 c0 -8 4 -12 9 -9 5 3 6 10 3 15 -9 13 -12 11 -12 -6z"/>
<path d="M5295 2251 c-3 -5 0 -13 6 -17 8 -5 9 -3 4 6 -6 9 -1 10 16 5 19 -5
21 -4 9 4 -19 13 -27 14 -35 2z"/>
<path d="M5596 2245 c-9 -26 -7 -32 5 -12 6 10 9 21 6 23 -2 3 -7 -2 -11 -11z"/>
<path d="M5740 2250 c0 -5 -6 -9 -12 -7 -7 1 -14 -9 -15 -23 -2 -24 -2 -24 5
-2 4 13 11 23 17 22 5 -1 11 3 13 9 2 6 1 11 -2 11 -3 0 -6 -4 -6 -10z"/>
<path d="M8013 2245 c0 -8 4 -12 9 -9 5 3 6 10 3 15 -9 13 -12 11 -12 -6z"/>
<path d="M4865 2239 c-3 -4 2 -6 10 -5 21 3 28 13 10 13 -9 0 -18 -4 -20 -8z"/>
<path d="M4910 2246 c0 -2 7 -7 16 -10 8 -3 12 -2 9 4 -6 10 -25 14 -25 6z"/>
<path d="M5270 2241 c0 -6 4 -13 10 -16 6 -3 7 1 4 9 -7 18 -14 21 -14 7z"/>
<path d="M5773 2234 c-3 -8 -9 -11 -14 -8 -5 3 -9 1 -9 -4 0 -5 12 -9 28 -9
15 0 21 2 15 4 -20 7 -15 19 7 20 11 1 18 -2 15 -7 -3 -5 6 -7 20 -4 24 4 35
-9 15 -19 -6 -3 -5 -4 2 -3 18 4 16 31 -2 32 -8 1 -17 3 -20 4 -18 9 -53 5
-57 -6z"/>
<path d="M6654 2242 c3 -5 0 -12 -6 -15 -7 -2 -10 -7 -7 -11 3 -4 12 0 18 8 9
11 9 16 0 22 -7 4 -9 3 -5 -4z"/>
<path d="M6759 2243 c0 -5 -2 -16 -4 -25 -3 -14 0 -16 15 -8 26 14 30 13 23
-7 -7 -19 -5 -18 16 9 11 15 9 16 -18 13 -23 -3 -29 -1 -24 11 3 7 2 14 -1 14
-3 0 -6 -3 -7 -7z"/>
<path d="M6894 2242 c5 -8 -1 -12 -16 -13 -18 -1 -19 -2 -4 -6 23 -6 43 12 25
22 -8 5 -10 4 -5 -3z"/>
<path d="M7117 2234 c3 -9 -3 -12 -20 -8 -14 2 -28 0 -31 -4 -3 -5 5 -8 17 -7
12 1 29 -3 37 -9 8 -5 12 -7 8 -2 -4 5 -3 16 2 26 6 12 5 17 -5 17 -7 0 -11
-6 -8 -13z"/>
<path d="M4734 2226 c1 -8 5 -18 8 -22 4 -3 5 1 4 10 -1 8 -5 18 -8 22 -4 3
-5 -1 -4 -10z"/>
<path d="M5079 2238 c-5 -18 -6 -38 -1 -34 7 8 12 36 6 36 -2 0 -4 -1 -5 -2z"/>
<path d="M5108 2233 c7 -3 16 -2 19 1 4 3 -2 6 -13 5 -11 0 -14 -3 -6 -6z"/>
<path d="M6192 2220 c0 -14 2 -19 5 -12 2 6 2 18 0 25 -3 6 -5 1 -5 -13z"/>
<path d="M7370 2236 c0 -2 8 -10 18 -17 15 -13 16 -12 3 4 -13 16 -21 21 -21
13z"/>
<path d="M7456 2227 c3 -10 9 -15 12 -12 3 3 0 11 -7 18 -10 9 -11 8 -5 -6z"/>
<path d="M4175 2220 c3 -5 8 -10 11 -10 2 0 4 5 4 10 0 6 -5 10 -11 10 -5 0
-7 -4 -4 -10z"/>
<path d="M4696 2222 c-3 -5 1 -9 9 -9 8 0 12 4 9 9 -3 4 -7 8 -9 8 -2 0 -6 -4
-9 -8z"/>
<path d="M5170 2222 c0 -4 10 -9 22 -9 18 -2 20 0 8 7 -18 12 -30 13 -30 2z"/>
<path d="M5256 2216 c6 -15 4 -17 -6 -11 -9 6 -11 4 -5 -4 5 -9 10 -10 18 -2
8 8 7 14 -2 24 -10 10 -11 8 -5 -7z"/>
<path d="M5334 2213 c2 -9 8 -18 15 -19 6 -1 7 0 2 2 -6 3 -7 12 -4 20 3 8 1
14 -5 14 -6 0 -9 -8 -8 -17z"/>
<path d="M5365 2220 c-3 -6 1 -7 9 -4 18 7 21 14 7 14 -6 0 -13 -4 -16 -10z"/>
<path d="M5405 2220 c-3 -6 1 -7 9 -4 18 7 21 14 7 14 -6 0 -13 -4 -16 -10z"/>
<path d="M5505 2220 c-3 -5 -2 -10 4 -10 5 0 13 5 16 10 3 6 2 10 -4 10 -5 0
-13 -4 -16 -10z"/>
<path d="M5610 2220 c0 -5 5 -10 10 -10 6 0 10 5 10 10 0 6 -4 10 -10 10 -5 0
-10 -4 -10 -10z"/>
<path d="M6051 2214 c0 -11 3 -14 6 -6 3 7 2 16 -1 19 -3 4 -6 -2 -5 -13z"/>
<path d="M6370 2220 c0 -5 5 -10 10 -10 6 0 10 5 10 10 0 6 -4 10 -10 10 -5 0
-10 -4 -10 -10z"/>
<path d="M6585 2220 c-3 -6 1 -7 9 -4 18 7 21 14 7 14 -6 0 -13 -4 -16 -10z"/>
<path d="M6680 2216 c0 -9 -4 -15 -9 -11 -15 9 -24 -15 -11 -30 6 -8 9 -19 6
-24 -9 -13 11 -24 27 -14 6 4 18 8 25 9 15 3 37 -35 34 -56 -3 -13 -2 -13 7 0
6 9 6 18 0 26 -5 6 -8 18 -6 25 2 8 2 11 0 6 -3 -4 -10 -4 -16 0 -7 4 -14 8
-17 9 -23 4 -60 26 -60 34 0 6 5 8 10 5 11 -7 26 22 16 32 -3 4 -6 -1 -6 -11z
m15 -66 c-3 -5 -11 -10 -16 -10 -6 0 -7 5 -4 10 3 6 11 10 16 10 6 0 7 -4 4
-10z"/>
<path d="M6994 2222 c4 -3 14 -7 22 -8 9 -1 13 0 10 4 -4 3 -14 7 -22 8 -9 1
-13 0 -10 -4z"/>
<path d="M7726 2222 c-3 -5 1 -9 9 -9 8 0 12 4 9 9 -3 4 -7 8 -9 8 -2 0 -6 -4
-9 -8z"/>
<path d="M7875 2220 c-3 -5 -1 -10 4 -10 6 0 11 5 11 10 0 6 -2 10 -4 10 -3 0
-8 -4 -11 -10z"/>
<path d="M4879 2215 c-1 -3 -2 -8 -3 -12 -1 -5 -4 -13 -8 -19 -4 -6 -1 -11 5
-11 7 0 13 11 13 24 0 21 -4 31 -7 18z"/>
<path d="M5295 2211 c-3 -5 0 -13 6 -17 7 -4 9 -3 5 4 -3 5 0 13 6 15 9 4 10
6 1 6 -6 1 -14 -3 -18 -8z"/>
<path d="M5427 2209 c-17 -10 -17 -12 -2 -35 10 -16 12 -24 4 -24 -7 0 -10 -3
-7 -6 12 -11 47 16 42 31 -4 8 -11 15 -16 15 -6 0 -5 -6 2 -15 8 -10 9 -15 2
-15 -6 0 -15 8 -21 18 -7 13 -5 20 12 29 12 7 18 12 12 12 -5 0 -18 -4 -28
-10z"/>
<path d="M6415 2200 c19 -21 19 -21 -3 -27 -24 -6 -30 -20 -9 -20 7 0 21 12
32 25 10 14 13 22 7 18 -7 -4 -12 -3 -12 2 0 6 -8 13 -17 16 -15 6 -14 4 2
-14z"/>
<path d="M6710 2210 c0 -6 7 -13 15 -16 8 -4 12 -10 9 -15 -3 -5 0 -9 5 -9 17
0 13 14 -9 33 -11 9 -20 12 -20 7z"/>
<path d="M6841 2213 c-1 -7 -7 -12 -13 -10 -8 1 -13 -8 -13 -23 0 -15 5 -24
13 -22 9 2 12 -4 7 -17 -8 -26 22 -36 35 -11 16 29 11 38 -5 10 -14 -24 -16
-23 -19 10 0 8 -7 14 -13 13 -7 -2 -13 6 -13 16 0 14 6 19 20 16 11 -2 23 1
26 7 4 6 3 8 -4 4 -5 -3 -13 0 -15 6 -4 10 -6 10 -6 1z"/>
<path d="M6910 2211 c0 -7 -5 -9 -12 -5 -7 5 -8 3 -3 -5 5 -9 10 -10 18 -2 6
6 8 14 4 18 -4 3 -7 1 -7 -6z"/>
<path d="M4215 2200 c-3 -5 -1 -10 4 -10 6 0 11 5 11 10 0 6 -2 10 -4 10 -3 0
-8 -4 -11 -10z"/>
<path d="M4594 2169 c-1 -21 2 -39 6 -39 7 0 7 66 0 74 -3 2 -6 -13 -6 -35z"/>
<path d="M4626 2198 c3 -4 9 -8 15 -8 5 0 9 4 9 8 0 5 -7 9 -15 9 -8 0 -12 -4
-9 -9z"/>
<path d="M4785 2200 c-3 -6 1 -7 9 -4 18 7 21 14 7 14 -6 0 -13 -4 -16 -10z"/>
<path d="M4820 2204 c0 -1 6 -7 14 -13 10 -9 15 -8 19 2 3 8 -3 13 -14 13 -11
0 -19 -1 -19 -2z"/>
<path d="M5035 2201 c-3 -5 0 -13 6 -17 7 -4 9 -3 5 4 -3 5 0 13 6 15 9 4 10
6 1 6 -6 1 -14 -3 -18 -8z"/>
<path d="M5095 2199 c-5 -8 -5 -11 -1 -7 10 8 44 -24 38 -36 -3 -5 0 -6 7 -1
10 6 10 10 0 19 -7 6 -18 17 -25 25 -9 12 -12 12 -19 0z"/>
<path d="M5210 2200 c-9 -6 -10 -10 -3 -10 6 0 15 5 18 10 8 12 4 12 -15 0z"/>
<path d="M5374 2199 c-4 -7 -3 -9 4 -5 5 3 13 0 15 -6 4 -9 6 -10 6 -1 1 17
-16 25 -25 12z"/>
<path d="M5470 2200 c0 -5 5 -10 10 -10 6 0 10 5 10 10 0 6 -4 10 -10 10 -5 0
-10 -4 -10 -10z"/>
<path d="M5577 2203 c-4 -3 -7 -13 -7 -22 1 -13 3 -13 11 2 11 19 8 33 -4 20z"/>
<path d="M5810 2199 c0 -5 -5 -7 -12 -3 -7 4 -8 3 -4 -4 4 -7 3 -12 -3 -12 -5
0 -12 5 -14 10 -3 6 -4 5 -3 -2 4 -21 30 -20 44 2 7 12 8 20 2 20 -5 0 -10 -5
-10 -11z"/>
<path d="M5875 2199 c-11 -16 -1 -19 13 -3 7 8 8 14 3 14 -5 0 -13 -5 -16 -11z"/>
<path d="M6150 2200 c18 -12 30 -13 30 -2 0 4 -10 9 -22 9 -18 2 -20 0 -8 -7z"/>
<path d="M6452 2180 c-12 -16 -22 -34 -22 -40 0 -7 -8 -9 -20 -5 -11 3 -20 3
-20 -2 0 -5 9 -9 20 -10 13 -1 27 11 41 37 12 22 26 37 31 34 4 -3 8 0 8 5 0
19 -16 12 -38 -19z"/>
<path d="M6934 2202 c3 -5 0 -13 -6 -15 -9 -4 -10 -6 -1 -6 17 -1 25 16 12 25
-7 4 -9 3 -5 -4z"/>
<path d="M7344 2202 c4 -3 14 -7 22 -8 9 -1 13 0 10 4 -4 3 -14 7 -22 8 -9 1
-13 0 -10 -4z"/>
<path d="M7520 2195 c-7 -8 -9 -15 -5 -15 4 0 1 -8 -6 -17 -13 -16 -12 -17 4
-4 9 8 15 16 12 19 -3 3 0 11 6 19 6 7 9 13 6 13 -2 0 -10 -7 -17 -15z"/>
<path d="M7555 2201 c-3 -5 -2 -12 3 -15 5 -3 9 1 9 9 0 17 -3 19 -12 6z"/>
<path d="M7975 2200 c3 -5 8 -10 11 -10 2 0 4 5 4 10 0 6 -5 10 -11 10 -5 0
-7 -4 -4 -10z"/>
<path d="M8014 2196 c1 -8 5 -18 8 -22 4 -3 5 1 4 10 -1 8 -5 18 -8 22 -4 3
-5 -1 -4 -10z"/>
<path d="M4908 2193 c7 -3 16 -2 19 1 4 3 -2 6 -13 5 -11 0 -14 -3 -6 -6z"/>
<path d="M5155 2190 c3 -5 8 -10 11 -10 2 0 4 5 4 10 0 6 -5 10 -11 10 -5 0
-7 -4 -4 -10z"/>
<path d="M6992 2191 c-11 -7 -10 -9 3 -14 9 -4 14 -3 10 2 -3 5 1 12 7 14 7 3
9 6 3 6 -5 0 -16 -3 -23 -8z"/>
<path d="M7082 2180 c7 -10 14 -18 15 -16 6 6 -9 36 -18 36 -5 0 -4 -9 3 -20z"/>
<path d="M7166 2191 c-17 -6 -17 -8 -4 -14 10 -3 19 0 22 9 3 8 4 14 3 13 -1
0 -11 -4 -21 -8z"/>
<path d="M7217 2185 c3 -8 9 -12 14 -9 12 7 11 11 -5 17 -10 4 -13 1 -9 -8z"/>
<path d="M7455 2190 c-4 -6 -12 -7 -18 -4 -7 4 -9 4 -5 -1 4 -4 3 -13 -2 -20
-7 -8 -5 -12 5 -12 8 0 13 3 10 5 -3 3 2 14 12 24 9 10 13 18 10 18 -3 0 -9
-5 -12 -10z"/>
<path d="M4095 2180 c3 -5 8 -10 11 -10 2 0 4 5 4 10 0 6 -5 10 -11 10 -5 0
-7 -4 -4 -10z"/>
<path d="M4466 2182 c-3 -5 1 -9 9 -9 8 0 12 4 9 9 -3 4 -7 8 -9 8 -2 0 -6 -4
-9 -8z"/>
<path d="M4659 2173 c-13 -16 -12 -17 4 -4 16 13 21 21 13 21 -2 0 -10 -8 -17
-17z"/>
<path d="M4749 2177 c6 -8 7 -18 3 -22 -4 -5 -1 -5 6 -1 10 6 10 11 1 22 -6 8
-14 14 -16 14 -3 0 0 -6 6 -13z"/>
<path d="M4950 2182 c0 -5 7 -9 15 -9 8 0 12 4 9 9 -3 4 -9 8 -15 8 -5 0 -9
-4 -9 -8z"/>
<path d="M5067 2179 c7 -9 10 -19 6 -22 -3 -4 -1 -7 5 -7 17 0 15 16 -5 31
-16 12 -17 12 -6 -2z"/>
<path d="M5220 2180 c-12 -7 -10 -9 7 -7 12 0 19 5 17 9 -6 10 -6 10 -24 -2z"/>
<path d="M5260 2170 c-6 -11 -9 -20 -8 -20 2 0 11 9 21 20 9 11 13 20 7 20 -5
0 -14 -9 -20 -20z"/>
<path d="M5310 2180 c-13 -8 -12 -10 3 -10 9 0 17 5 17 10 0 12 -1 12 -20 0z"/>
<path d="M6530 2174 c-17 -9 -20 -14 -9 -14 9 0 22 7 29 15 15 18 13 18 -20
-1z"/>
<path d="M6630 2185 c0 -5 5 -17 10 -25 5 -8 10 -10 10 -5 0 6 -5 17 -10 25
-5 8 -10 11 -10 5z"/>
<path d="M6690 2186 c0 -2 7 -7 16 -10 8 -3 12 -2 9 4 -6 10 -25 14 -25 6z"/>
<path d="M6860 2180 c-12 -7 -10 -9 8 -7 12 0 22 5 22 9 0 11 -12 10 -30 -2z"/>
<path d="M7033 2183 c4 -3 -1 -12 -11 -20 -15 -13 -15 -13 6 -3 19 9 23 30 5
30 -4 0 -3 -3 0 -7z"/>
<path d="M7120 2175 c-7 -9 -11 -17 -9 -20 3 -2 10 5 17 15 14 24 10 26 -8 5z"/>
<path d="M7314 2179 c-4 -7 -3 -9 4 -5 5 3 13 0 15 -6 4 -9 6 -10 6 -1 1 17
-16 25 -25 12z"/>
<path d="M7401 2176 c-9 -11 -9 -16 1 -22 7 -4 10 -4 6 1 -4 4 -3 14 3 22 6 7
9 13 6 13 -2 0 -10 -6 -16 -14z"/>
<path d="M7477 2172 c-15 -16 -15 -19 -2 -19 8 0 13 3 10 5 -3 3 0 11 6 19 17
20 5 16 -14 -5z"/>
<path d="M4155 2170 c-4 -6 -11 -7 -17 -4 -7 4 -8 2 -4 -5 6 -9 11 -9 22 0 14
11 18 19 10 19 -3 0 -8 -5 -11 -10z"/>
<path d="M5348 2170 c-10 -6 -14 -18 -11 -32 4 -22 4 -22 -11 -4 -9 11 -18 17
-21 14 -9 -9 26 -39 37 -32 5 3 7 15 5 26 -4 14 -2 18 9 14 8 -3 13 -2 9 3 -3
5 1 12 7 14 7 3 9 6 3 6 -5 0 -17 -4 -27 -9z"/>
<path d="M5590 2170 c0 -5 5 -10 11 -10 5 0 7 5 4 10 -3 6 -8 10 -11 10 -2 0
-4 -4 -4 -10z"/>
<path d="M6610 2162 c6 -13 14 -21 18 -18 3 4 -2 14 -12 24 -18 16 -18 16 -6
-6z"/>
<path d="M6780 2170 c-8 -5 -12 -12 -9 -15 4 -3 12 1 19 10 14 17 11 19 -10 5z"/>
<path d="M7056 2163 c-6 -14 -5 -15 5 -6 7 7 10 15 7 18 -3 3 -9 -2 -12 -12z"/>
<path d="M4513 2147 c-1 -11 -1 -18 0 -16 2 2 8 11 15 20 9 12 9 16 -1 16 -7
0 -14 -9 -14 -20z"/>
<path d="M4915 2161 c-9 -15 15 -25 28 -12 9 9 7 10 -7 5 -13 -5 -17 -4 -12 4
4 7 5 12 2 12 -3 0 -7 -4 -11 -9z"/>
<path d="M5277 2157 c-3 -8 -2 -20 3 -26 5 -9 8 -4 8 13 0 29 -3 32 -11 13z"/>
<path d="M5387 2163 c-10 -10 -8 -33 3 -33 5 0 6 7 3 17 -4 11 -3 14 5 9 7 -4
12 -2 12 3 0 12 -13 14 -23 4z"/>
<path d="M6897 2164 c-8 -9 3 -34 15 -34 6 0 6 6 -2 14 -9 12 -8 15 10 13 14
-1 20 -7 18 -22 -2 -15 3 -20 20 -21 13 -1 26 5 29 12 3 8 10 11 16 7 6 -3 7
-1 3 5 -10 16 -26 15 -26 -1 0 -7 -8 -13 -18 -14 -13 -1 -18 5 -18 19 1 20
-33 35 -47 22z"/>
<path d="M7268 2163 c7 -3 16 -2 19 1 4 3 -2 6 -13 5 -11 0 -14 -3 -6 -6z"/>
<path d="M7559 2168 c-9 -24 -2 -61 15 -75 21 -18 21 -18 5 2 -9 11 -15 32
-14 48 2 22 -2 35 -6 25z"/>
<path d="M7590 2156 c7 -7 13 -7 20 0 6 6 3 10 -10 10 -13 0 -16 -4 -10 -10z"/>
<path d="M4554 2152 c4 -7 2 -21 -5 -30 -12 -15 -11 -15 6 0 16 15 17 20 6 30
-11 11 -13 10 -7 0z"/>
<path d="M4795 2150 c-4 -6 -10 -8 -14 -6 -4 3 -13 0 -21 -5 -11 -7 -10 -8 8
-6 20 3 56 27 40 27 -4 0 -10 -5 -13 -10z"/>
<path d="M5030 2156 c0 -3 9 -10 20 -16 11 -6 20 -8 20 -6 0 3 -9 10 -20 16
-11 6 -20 8 -20 6z"/>
<path d="M5201 2155 c-1 -19 17 -39 38 -42 23 -3 37 12 20 23 -8 5 -9 3 -5 -5
6 -8 2 -11 -10 -9 -11 2 -24 12 -31 23 -7 11 -12 16 -12 10z"/>
<path d="M6590 2155 c0 -5 5 -17 10 -25 5 -8 10 -10 10 -5 0 6 -5 17 -10 25
-5 8 -10 11 -10 5z"/>
<path d="M7879 2158 c-5 -18 -6 -38 -1 -34 7 8 12 36 6 36 -2 0 -4 -1 -5 -2z"/>
<path d="M4416 2142 c-3 -5 1 -9 9 -9 8 0 12 4 9 9 -3 4 -7 8 -9 8 -2 0 -6 -4
-9 -8z"/>
<path d="M4632 2126 c-17 -20 -16 -21 3 -5 11 9 28 15 37 14 10 -2 20 0 22 4
11 17 -46 5 -62 -13z"/>
<path d="M4835 2140 c3 -5 8 -10 11 -10 2 0 4 5 4 10 0 6 -5 10 -11 10 -5 0
-7 -4 -4 -10z"/>
<path d="M5002 2137 c10 -8 14 -18 10 -22 -4 -5 -1 -5 6 -1 17 10 15 14 -10
26 -21 10 -21 10 -6 -3z"/>
<path d="M5107 2134 c6 -15 23 -19 23 -5 0 5 -7 11 -14 14 -10 4 -13 1 -9 -9z"/>
<path d="M5153 2136 c0 -8 6 -12 14 -9 7 3 10 9 7 14 -8 14 -21 11 -21 -5z"/>
<path d="M5470 2144 c0 -7 27 -34 34 -34 4 0 1 9 -6 20 -12 19 -28 27 -28 14z"/>
<path d="M5536 2138 c5 -8 1 -9 -12 -4 -14 5 -16 4 -7 -5 6 -6 16 -8 22 -5 14
9 14 26 0 26 -5 0 -7 -5 -3 -12z"/>
<path d="M6570 2135 c0 -8 4 -15 10 -15 5 0 7 7 4 15 -4 8 -8 15 -10 15 -2 0
-4 -7 -4 -15z"/>
<path d="M6796 2135 c4 -8 8 -15 10 -15 2 0 4 7 4 15 0 8 -4 15 -10 15 -5 0
-7 -7 -4 -15z"/>
<path d="M7084 2135 c8 -7 12 -16 8 -20 -4 -5 -2 -5 5 -1 16 9 6 33 -14 33
-14 0 -14 -1 1 -12z"/>
<path d="M7181 2141 c-10 -7 -7 -9 12 -8 14 1 23 5 20 10 -6 9 -15 9 -32 -2z"/>
<path d="M7640 2145 c0 -2 6 -8 13 -14 10 -8 14 -7 14 2 0 8 -6 14 -14 14 -7
0 -13 -1 -13 -2z"/>
<path d="M7710 2135 c5 -7 6 -16 2 -21 -4 -5 -3 -5 2 -1 15 12 15 34 0 34 -9
0 -11 -4 -4 -12z"/>
<path d="M7799 2133 c-13 -16 -12 -17 4 -4 16 13 21 21 13 21 -2 0 -10 -8 -17
-17z"/>
<path d="M7900 2146 c0 -2 8 -10 18 -17 15 -13 16 -12 3 4 -13 16 -21 21 -21
13z"/>
<path d="M4950 2129 c0 -5 -5 -7 -12 -3 -7 4 -8 3 -4 -4 4 -6 13 -9 21 -6 8 4
12 10 9 15 -7 12 -14 11 -14 -2z"/>
<path d="M6770 2131 c0 -5 7 -15 17 -22 15 -13 15 -12 4 9 -12 23 -21 28 -21
13z"/>
<path d="M7226 2123 c-6 -14 -5 -15 5 -6 7 7 10 15 7 18 -3 3 -9 -2 -12 -12z"/>
<path d="M4170 2120 c0 -5 5 -10 11 -10 5 0 7 5 4 10 -3 6 -8 10 -11 10 -2 0
-4 -4 -4 -10z"/>
<path d="M4215 2120 c-3 -5 -1 -10 4 -10 6 0 11 5 11 10 0 6 -2 10 -4 10 -3 0
-8 -4 -11 -10z"/>
<path d="M5026 2098 l-18 -33 21 25 c18 22 26 40 18 40 -1 0 -11 -15 -21 -32z"/>
<path d="M5194 2106 c3 -16 8 -31 11 -35 3 -3 4 7 1 23 -3 16 -8 31 -11 35 -3
3 -4 -7 -1 -23z"/>
<path d="M5420 2115 c10 -12 9 -16 -5 -22 -12 -4 -23 0 -31 12 -8 10 -14 14
-14 8 0 -7 4 -14 9 -18 11 -6 10 -45 -1 -45 -4 0 -8 -5 -8 -11 0 -8 5 -8 15 1
8 7 12 16 10 21 -7 10 35 34 53 31 7 -2 4 6 -7 17 -24 24 -40 28 -21 6z"/>
<path d="M5486 2085 c26 -25 52 -45 58 -45 6 0 0 7 -12 16 -25 17 -29 34 -7
34 8 0 15 5 15 10 0 7 -7 7 -21 -1 -17 -9 -25 -7 -43 10 -12 12 -26 21 -31 21
-4 0 14 -20 41 -45z"/>
<path d="M6879 2120 c-3 -20 -4 -25 -12 -37 -5 -8 -1 -22 9 -35 12 -16 15 -18
10 -5 -3 11 0 20 9 23 8 4 15 11 15 17 0 5 -9 2 -20 -8 -18 -16 -30 -8 -13 9
8 8 15 46 8 46 -3 0 -6 -4 -6 -10z"/>
<path d="M7019 2125 c-1 0 -3 -10 -4 -23 -1 -14 5 -27 16 -33 13 -6 19 -6 19
1 0 5 -6 10 -13 10 -7 0 -13 8 -14 19 -1 13 3 17 17 14 10 -3 20 -1 23 4 3 4
-6 8 -19 8 -13 0 -25 0 -25 0z"/>
<path d="M7134 2115 c-4 -8 -9 -13 -13 -10 -4 2 -8 -2 -8 -10 0 -8 4 -12 9 -9
10 7 30 44 23 44 -3 0 -8 -7 -11 -15z"/>
<path d="M7444 2119 c-3 -6 2 -18 12 -27 17 -16 17 -16 5 0 -7 9 -10 22 -6 28
3 5 4 10 1 10 -3 0 -8 -5 -12 -11z"/>
<path d="M7473 2113 c0 -9 4 -10 14 -2 7 6 13 12 13 14 0 1 -6 2 -13 2 -8 0
-14 -6 -14 -14z"/>
<path d="M7510 2126 c0 -2 7 -7 16 -10 8 -3 12 -2 9 4 -6 10 -25 14 -25 6z"/>
<path d="M7745 2120 c-3 -6 1 -7 9 -4 18 7 21 14 7 14 -6 0 -13 -4 -16 -10z"/>
<path d="M8035 2119 c-3 -4 2 -6 10 -5 21 3 28 13 10 13 -9 0 -18 -4 -20 -8z"/>
<path d="M4376 2107 c3 -10 9 -15 12 -12 3 3 0 11 -7 18 -10 9 -11 8 -5 -6z"/>
<path d="M4736 2107 c3 -10 9 -15 12 -12 3 3 0 11 -7 18 -10 9 -11 8 -5 -6z"/>
<path d="M7155 2111 c-3 -5 0 -13 6 -17 7 -4 9 -3 5 4 -3 5 0 13 6 15 9 4 10
6 1 6 -6 1 -14 -3 -18 -8z"/>
<path d="M5060 2100 c0 -5 5 -10 11 -10 5 0 7 5 4 10 -3 6 -8 10 -11 10 -2 0
-4 -4 -4 -10z"/>
<path d="M5090 2100 c0 -5 5 -10 10 -10 6 0 10 5 10 10 0 6 -4 10 -10 10 -5 0
-10 -4 -10 -10z"/>
<path d="M5125 2100 c-3 -6 1 -7 9 -4 18 7 21 14 7 14 -6 0 -13 -4 -16 -10z"/>
<path d="M5290 2100 c0 -5 5 -10 10 -10 6 0 10 5 10 10 0 6 -4 10 -10 10 -5 0
-10 -4 -10 -10z"/>
<path d="M5350 2105 c0 -5 5 -17 10 -25 5 -8 10 -10 10 -5 0 6 -5 17 -10 25
-5 8 -10 11 -10 5z"/>
<path d="M6810 2102 c0 -4 9 -13 21 -20 12 -8 18 -9 15 -4 -3 6 -3 12 1 15 5
2 2 2 -4 1 -7 -2 -13 1 -13 6 0 6 -4 10 -10 10 -5 0 -10 -3 -10 -8z"/>
<path d="M6915 2100 c27 -12 43 -12 25 0 -8 5 -22 9 -30 9 -10 0 -8 -3 5 -9z"/>
<path d="M6991 2094 c0 -11 3 -14 6 -6 3 7 2 16 -1 19 -3 4 -6 -2 -5 -13z"/>
<path d="M7061 2100 c-9 -5 -4 -7 13 -7 29 0 32 2 13 10 -8 3 -20 2 -26 -3z"/>
<path d="M7265 2099 c-4 -6 -5 -12 -2 -15 2 -3 7 2 10 11 7 17 1 20 -8 4z"/>
<path d="M7395 2082 c1 -15 -2 -32 -6 -38 -5 -6 -3 -11 6 -11 8 0 11 5 8 10
-4 7 1 8 13 4 17 -6 17 -6 3 5 -9 7 -15 21 -13 30 1 10 -1 20 -5 23 -4 2 -7
-8 -6 -23z"/>
<path d="M7630 2100 c0 -5 5 -10 11 -10 5 0 7 5 4 10 -3 6 -8 10 -11 10 -2 0
-4 -4 -4 -10z"/>
<path d="M7990 2106 c0 -2 7 -7 16 -10 8 -3 12 -2 9 4 -6 10 -25 14 -25 6z"/>
<path d="M8275 2100 c-3 -5 -1 -10 4 -10 6 0 11 5 11 10 0 6 -2 10 -4 10 -3 0
-8 -4 -11 -10z"/>
<path d="M4990 2090 c-9 -6 -10 -10 -3 -10 6 0 15 5 18 10 8 12 4 12 -15 0z"/>
<path d="M5236 2085 c10 -8 24 -14 29 -14 6 0 1 6 -9 14 -11 8 -24 15 -30 15
-5 0 -1 -7 10 -15z"/>
<path d="M6956 2085 c-9 -26 -7 -32 5 -12 6 10 9 21 6 23 -2 3 -7 -2 -11 -11z"/>
<path d="M4135 2080 c-3 -5 -1 -10 4 -10 6 0 11 5 11 10 0 6 -2 10 -4 10 -3 0
-8 -4 -11 -10z"/>
<path d="M4215 2080 c-3 -5 -1 -10 4 -10 6 0 11 5 11 10 0 6 -2 10 -4 10 -3 0
-8 -4 -11 -10z"/>
<path d="M4250 2080 c0 -5 5 -10 11 -10 5 0 7 5 4 10 -3 6 -8 10 -11 10 -2 0
-4 -4 -4 -10z"/>
<path d="M4435 2080 c-3 -5 -1 -10 4 -10 6 0 11 5 11 10 0 6 -2 10 -4 10 -3 0
-8 -4 -11 -10z"/>
<path d="M4510 2078 c0 -4 4 -8 9 -8 6 0 12 4 15 8 3 5 -1 9 -9 9 -8 0 -15 -4
-15 -9z"/>
<path d="M4639 2073 c-13 -16 -12 -17 4 -4 16 13 21 21 13 21 -2 0 -10 -8 -17
-17z"/>
<path d="M4870 2080 c0 -5 5 -10 10 -10 6 0 10 5 10 10 0 6 -4 10 -10 10 -5 0
-10 -4 -10 -10z"/>
<path d="M4920 2071 c-7 -15 -7 -19 5 -17 8 1 18 6 22 11 5 4 2 5 -6 0 -11 -6
-13 -4 -8 8 9 23 0 21 -13 -2z"/>
<path d="M5036 2075 c-9 -26 -7 -32 5 -12 6 10 9 21 6 23 -2 3 -7 -2 -11 -11z"/>
<path d="M5139 2082 c-1 -4 -1 -10 0 -14 2 -12 -17 -10 -22 2 -3 6 -4 5 -3 -2
2 -7 9 -13 17 -13 8 0 13 5 12 12 -2 6 6 11 17 10 11 -1 20 -7 20 -14 0 -7 5
-13 10 -13 7 0 7 6 1 18 -9 17 -50 28 -52 14z"/>
<path d="M6758 2068 c-20 -25 -25 -46 -5 -26 26 28 39 48 31 48 -5 0 -17 -10
-26 -22z"/>
<path d="M7134 2075 c-4 -8 -11 -12 -17 -8 -6 3 -7 1 -3 -5 11 -18 23 -14 29
8 6 23 -1 27 -9 5z"/>
<path d="M7173 2076 c-3 -5 -1 -6 5 -2 7 4 12 2 12 -3 0 -6 5 -11 11 -11 5 0
8 4 5 9 -4 5 0 11 6 14 7 3 3 4 -10 4 -13 -1 -26 -6 -29 -11z"/>
<path d="M7353 2075 c0 -8 4 -12 9 -9 5 3 6 10 3 15 -9 13 -12 11 -12 -6z"/>
<path d="M8034 2082 c4 -3 14 -7 22 -8 9 -1 13 0 10 4 -4 3 -14 7 -22 8 -9 1
-13 0 -10 -4z"/>
<path d="M8094 2082 c4 -3 14 -7 22 -8 9 -1 13 0 10 4 -4 3 -14 7 -22 8 -9 1
-13 0 -10 -4z"/>
<path d="M3675 2071 c-3 -5 -2 -12 3 -15 5 -3 9 1 9 9 0 17 -3 19 -12 6z"/>
<path d="M4705 2063 c14 -16 16 -16 33 1 16 18 16 18 -4 8 -13 -7 -25 -8 -33
-2 -6 6 -4 2 4 -7z"/>
<path d="M4773 2065 c0 -7 6 -11 14 -8 7 3 13 6 13 8 0 2 -6 5 -13 8 -8 3 -14
-1 -14 -8z"/>
<path d="M5072 2073 c-6 -2 -10 -9 -6 -14 8 -14 21 -11 21 6 0 8 -1 15 -1 14
-1 0 -7 -3 -14 -6z"/>
<path d="M5272 2064 c-7 -8 -8 -14 -3 -14 10 0 25 19 20 25 -2 1 -10 -3 -17
-11z"/>
<path d="M5309 2073 c-1 -5 -1 -11 0 -15 0 -5 -3 -8 -9 -8 -5 0 -10 -5 -10
-10 0 -6 8 -5 20 2 12 8 15 15 8 19 -7 4 -6 8 3 12 10 4 10 6 2 6 -7 1 -14 -2
-14 -6z"/>
<path d="M5341 2070 c1 -8 -1 -23 -6 -33 -4 -10 -5 -21 -1 -24 3 -4 6 1 6 11
0 9 4 15 9 11 6 -3 8 4 6 16 -5 24 -18 42 -14 19z"/>
<path d="M5433 2062 c0 -12 5 -22 9 -22 11 0 10 12 -2 30 -7 12 -9 10 -7 -8z"/>
<path d="M5455 2070 c3 -5 8 -10 11 -10 2 0 4 5 4 10 0 6 -5 10 -11 10 -5 0
-7 -4 -4 -10z"/>
<path d="M6795 2070 c-3 -5 -1 -10 4 -10 6 0 11 5 11 10 0 6 -2 10 -4 10 -3 0
-8 -4 -11 -10z"/>
<path d="M6912 2064 c-7 -8 -8 -14 -3 -14 10 0 25 19 20 25 -2 1 -10 -3 -17
-11z"/>
<path d="M7070 2065 c0 -8 4 -15 10 -15 5 0 7 7 4 15 -4 8 -8 15 -10 15 -2 0
-4 -7 -4 -15z"/>
<path d="M7518 2070 c12 -14 85 -23 77 -10 -2 4 -17 6 -32 5 -15 -1 -35 3 -43
9 -12 8 -13 8 -2 -4z"/>
<path d="M7613 2065 c0 -8 4 -15 9 -15 4 0 8 4 8 9 0 6 -4 12 -8 15 -5 3 -9
-1 -9 -9z"/>
<path d="M4320 2060 c-9 -6 -10 -10 -3 -10 6 0 15 5 18 10 8 12 4 12 -15 0z"/>
<path d="M4470 2066 c0 -2 7 -7 16 -10 8 -3 12 -2 9 4 -6 10 -25 14 -25 6z"/>
<path d="M4659 2053 c-13 -16 -12 -17 4 -4 16 13 21 21 13 21 -2 0 -10 -8 -17
-17z"/>
<path d="M4833 2049 c-2 -23 3 -25 10 -4 4 8 3 16 -1 19 -4 3 -9 -4 -9 -15z"/>
<path d="M4975 2060 c3 -5 8 -10 11 -10 2 0 4 5 4 10 0 6 -5 10 -11 10 -5 0
-7 -4 -4 -10z"/>
<path d="M5232 2050 c7 -10 14 -18 15 -16 6 6 -9 36 -18 36 -5 0 -4 -9 3 -20z"/>
<path d="M5405 2048 c-4 -13 -6 -29 -5 -36 1 -10 -3 -11 -19 -3 -25 14 -31 14
-31 -1 0 -6 3 -8 6 -5 4 4 25 -7 47 -23 44 -32 57 -36 57 -19 0 5 -4 8 -8 5
-5 -3 -18 1 -29 9 -20 14 -22 35 -8 68 4 10 5 20 3 23 -3 3 -9 -6 -13 -18z"/>
<path d="M6824 2062 c7 -11 -6 -17 -28 -13 -11 2 -36 -19 -36 -31 0 -5 7 -3
15 6 9 8 21 13 29 10 18 -7 41 22 25 32 -8 4 -9 3 -5 -4z"/>
<path d="M6970 2060 c0 -5 5 -10 10 -10 6 0 10 5 10 10 0 6 -4 10 -10 10 -5 0
-10 -4 -10 -10z"/>
<path d="M7153 2050 c-1 -11 2 -20 7 -20 4 0 7 7 6 15 -3 23 -12 26 -13 5z"/>
<path d="M7319 2068 c-6 -21 -5 -38 1 -38 5 0 8 9 7 20 -1 17 -5 26 -8 18z"/>
<path d="M7480 2066 c0 -2 8 -10 18 -17 15 -13 16 -12 3 4 -13 16 -21 21 -21
13z"/>
<path d="M4510 2056 c0 -2 8 -10 18 -17 15 -13 16 -12 3 4 -13 16 -21 21 -21
13z"/>
<path d="M5010 2051 c0 -6 4 -13 10 -16 6 -3 7 1 4 9 -7 18 -14 21 -14 7z"/>
<path d="M4054 2038 c-4 -7 -4 -10 1 -6 4 4 15 2 24 -5 14 -11 14 -10 2 6 -16
20 -18 21 -27 5z"/>
<path d="M4597 2028 c19 -21 31 -25 14 -5 -6 8 -9 16 -6 19 3 2 -2 5 -10 5
-13 0 -13 -3 2 -19z"/>
<path d="M4950 2040 c0 -5 5 -10 10 -10 6 0 10 5 10 10 0 6 -4 10 -10 10 -5 0
-10 -4 -10 -10z"/>
<path d="M5044 2039 c-5 -8 -3 -9 6 -4 10 6 12 4 7 -8 -3 -10 -2 -17 3 -17 13
0 13 27 1 35 -5 3 -13 0 -17 -6z"/>
<path d="M5096 2043 c-10 -10 -7 -33 4 -33 5 0 7 7 3 16 -5 14 -3 14 15 3 11
-7 20 -18 19 -23 -1 -6 9 -11 23 -11 14 0 24 5 23 11 -1 5 8 16 19 23 18 11
20 11 15 -4 -4 -9 -3 -14 3 -10 6 3 10 1 10 -6 0 -7 3 -10 6 -7 3 4 1 16 -6
27 -10 20 -12 20 -35 5 -14 -9 -22 -20 -19 -25 3 -5 -4 -9 -16 -9 -12 0 -19 4
-16 9 7 10 -39 43 -48 34z"/>
<path d="M5150 2040 c0 -5 5 -10 10 -10 6 0 10 5 10 10 0 6 -4 10 -10 10 -5 0
-10 -4 -10 -10z"/>
<path d="M6854 2036 c4 -13 2 -17 -7 -13 -26 10 -37 -8 -14 -22 12 -8 19 -10
15 -6 -4 5 0 14 10 21 14 11 15 15 3 26 -12 11 -13 10 -7 -6z"/>
<path d="M6911 2031 c-22 -17 -22 -49 0 -36 5 4 8 -4 6 -17 -1 -14 3 -22 11
-20 6 1 12 -7 12 -18 0 -11 -5 -19 -12 -17 -6 1 -13 -7 -15 -18 -3 -18 -2 -18
5 -2 4 10 12 18 17 18 6 -1 10 9 10 22 0 12 -5 21 -11 20 -17 -3 -12 60 6 74
24 20 -3 14 -29 -6z m9 -15 c0 -3 -4 -8 -10 -11 -5 -3 -10 -1 -10 4 0 6 5 11
10 11 6 0 10 -2 10 -4z"/>
<path d="M7017 2042 c-9 -18 0 -45 16 -48 9 -1 15 2 11 7 -3 5 -9 7 -14 4 -5
-3 -8 3 -7 14 1 12 8 19 19 18 11 -1 16 -7 14 -14 -3 -7 -1 -13 5 -13 6 0 9 7
7 17 -3 16 -44 29 -51 15z"/>
<path d="M7097 2043 c-2 -5 -3 -15 -2 -23 0 -8 -9 -18 -20 -22 -17 -6 -16 -7
5 -5 14 1 24 8 23 15 -4 16 14 16 20 0 4 -10 6 -10 6 0 1 7 -6 15 -14 18 -8 4
-12 10 -9 15 3 5 3 9 0 9 -3 0 -7 -3 -9 -7z"/>
<path d="M7270 2041 c0 -10 19 -25 25 -20 1 2 -3 10 -11 17 -8 7 -14 8 -14 3z"/>
<path d="M8056 2042 c-3 -4 4 -9 15 -9 23 -2 25 3 4 10 -8 4 -16 3 -19 -1z"/>
<path d="M4349 2023 c-13 -16 -12 -17 4 -4 9 7 17 15 17 17 0 8 -8 3 -21 -13z"/>
<path d="M4857 2028 c2 -5 13 -8 23 -8 10 0 21 3 23 8 3 4 -8 7 -23 7 -15 0
-26 -3 -23 -7z"/>
<path d="M4926 2023 c-8 -20 9 -40 19 -22 6 8 4 10 -5 4 -9 -5 -10 -2 -5 14 8
25 0 29 -9 4z"/>
<path d="M4978 2028 c-7 -17 15 -19 29 -3 4 4 3 5 -4 2 -6 -4 -13 -2 -15 5 -3
8 -6 6 -10 -4z"/>
<path d="M5260 2021 c-7 -13 -7 -22 0 -26 13 -8 30 3 29 18 0 9 -2 9 -6 0 -2
-7 -9 -13 -14 -13 -6 0 -5 8 1 20 6 11 8 20 6 20 -3 0 -10 -9 -16 -19z"/>
<path d="M6636 2032 c-3 -5 -3 -21 -1 -37 2 -22 -5 -37 -32 -64 -26 -26 -31
-36 -21 -42 21 -14 28 -11 58 20 18 20 23 32 15 35 -15 5 -12 51 4 70 9 10 8
15 -3 19 -9 4 -17 3 -20 -1z m-4 -112 c-12 -10 -18 -20 -15 -24 4 -3 -1 -6
-10 -6 -9 0 -17 3 -17 7 0 13 45 51 54 45 5 -3 0 -13 -12 -22z"/>
<path d="M6955 2030 c-3 -5 -1 -10 4 -10 6 0 11 5 11 10 0 6 -2 10 -4 10 -3 0
-8 -4 -11 -10z"/>
<path d="M6991 2024 c0 -11 3 -14 6 -6 3 7 2 16 -1 19 -3 4 -6 -2 -5 -13z"/>
<path d="M7243 2021 c-10 -15 -9 -20 2 -25 8 -3 17 0 21 6 5 7 2 8 -6 3 -9 -5
-10 -2 -5 14 8 26 4 27 -12 2z"/>
<path d="M4426 2021 c-3 -4 6 -7 19 -7 14 0 22 2 19 5 -8 8 -34 10 -38 2z"/>
<path d="M4787 2019 c7 -7 15 -10 18 -7 3 3 -2 9 -12 12 -14 6 -15 5 -6 -5z"/>
<path d="M5420 2026 c0 -2 7 -6 15 -10 8 -3 15 -1 15 4 0 6 -7 10 -15 10 -8 0
-15 -2 -15 -4z"/>
<path d="M7188 2023 c6 -2 18 -2 25 0 6 3 1 5 -13 5 -14 0 -19 -2 -12 -5z"/>
<path d="M7631 2027 c2 -2 11 -8 20 -15 12 -9 16 -9 16 1 0 7 -9 14 -20 14
-11 1 -18 1 -16 0z"/>
<path d="M4637 2009 c7 -7 15 -10 18 -7 3 3 -2 9 -12 12 -14 6 -15 5 -6 -5z"/>
<path d="M6735 2010 c-3 -5 -1 -10 4 -10 6 0 11 5 11 10 0 6 -2 10 -4 10 -3 0
-8 -4 -11 -10z"/>
<path d="M4475 2001 c-3 -5 -2 -12 3 -15 5 -3 9 1 9 9 0 17 -3 19 -12 6z"/>
<path d="M4765 1999 c-4 -6 -13 -8 -19 -6 -7 3 -13 0 -13 -7 0 -19 23 -15 36
6 6 10 9 18 7 18 -3 0 -8 -5 -11 -11z"/>
<path d="M5010 2006 c0 -3 9 -10 20 -16 11 -6 20 -8 20 -6 0 3 -9 10 -20 16
-11 6 -20 8 -20 6z"/>
<path d="M5420 2001 c0 -5 7 -11 15 -15 8 -3 15 -1 15 3 0 5 -7 11 -15 15 -8
3 -15 1 -15 -3z"/>
<path d="M5460 1999 c0 -5 5 -7 10 -4 6 3 10 8 10 11 0 2 -4 4 -10 4 -5 0 -10
-5 -10 -11z"/>
<path d="M6861 1989 c-10 -17 -10 -24 0 -33 9 -8 11 -7 6 6 -3 10 -2 20 3 23
6 4 10 -2 11 -12 0 -10 3 -13 5 -6 3 7 2 19 -3 27 -7 13 -11 12 -22 -5z"/>
<path d="M6947 2004 c7 -3 15 -5 19 -4 4 1 11 -4 16 -12 8 -11 9 -10 6 1 -2 8
-15 15 -29 17 -13 1 -18 0 -12 -2z"/>
<path d="M7356 2001 c-17 -6 -17 -8 -4 -14 10 -3 19 0 22 9 3 8 4 14 3 13 -1
0 -11 -4 -21 -8z"/>
<path d="M7484 1995 c-5 -11 -10 -13 -19 -5 -8 7 -12 5 -12 -5 0 -8 3 -13 5
-10 3 3 15 -3 26 -12 12 -10 16 -11 9 -4 -8 10 -9 20 -2 33 5 10 7 18 4 18 -3
0 -8 -7 -11 -15z"/>
<path d="M7600 1995 c-7 -8 -16 -13 -19 -10 -4 2 -8 -2 -8 -10 0 -10 4 -12 12
-5 7 5 15 8 18 5 4 -3 5 -2 2 2 -3 3 0 12 6 20 6 7 9 13 6 13 -2 0 -10 -7 -17
-15z"/>
<path d="M3916 1987 c3 -10 9 -15 12 -12 3 3 0 11 -7 18 -10 9 -11 8 -5 -6z"/>
<path d="M4614 1980 c0 -13 4 -16 10 -10 7 7 7 13 0 20 -6 6 -10 3 -10 -10z"/>
<path d="M4694 1989 c-3 -6 -2 -15 3 -20 5 -5 9 -1 9 11 0 23 -2 24 -12 9z"/>
<path d="M4996 1985 c10 -8 23 -15 28 -15 6 0 1 7 -10 15 -10 8 -23 15 -28 15
-6 0 -1 -7 10 -15z"/>
<path d="M5068 1993 c6 -2 18 -2 25 0 6 3 1 5 -13 5 -14 0 -19 -2 -12 -5z"/>
<path d="M5194 1988 c-4 -6 -1 -16 7 -22 8 -6 15 -19 17 -29 3 -15 0 -16 -17
-5 -11 6 -19 17 -18 22 1 6 -7 11 -18 12 -15 1 -16 0 -2 -3 9 -3 15 -8 12 -13
-3 -4 6 -15 20 -24 13 -9 26 -12 29 -8 8 14 0 43 -14 52 -8 5 -11 12 -8 15 4
4 13 3 20 -1 7 -5 22 -10 33 -11 16 -2 17 -1 5 6 -8 5 -17 8 -21 5 -4 -2 -10
0 -14 6 -8 13 -22 13 -31 -2z"/>
<path d="M5297 1994 c-10 -11 -9 -24 4 -24 5 0 7 5 4 10 -3 6 1 10 9 10 9 0
15 -3 15 -7 -3 -20 2 -33 12 -33 8 0 7 6 -2 16 -12 15 -11 16 9 10 12 -4 22
-3 22 2 0 5 -6 9 -12 10 -7 0 -22 3 -33 7 -11 3 -24 3 -28 -1z"/>
<path d="M6686 1985 c-3 -8 -1 -15 3 -15 5 0 11 7 15 15 3 8 1 15 -3 15 -5 0
-11 -7 -15 -15z"/>
<path d="M6770 1988 c0 -9 -6 -18 -12 -20 -7 -3 2 -5 20 -5 18 0 28 4 21 7 -6
4 -15 14 -20 21 -7 11 -9 11 -9 -3z"/>
<path d="M6795 1990 c3 -5 8 -10 11 -10 2 0 4 5 4 10 0 6 -5 10 -11 10 -5 0
-7 -4 -4 -10z"/>
<path d="M4360 1980 c-9 -6 -10 -10 -3 -10 6 0 15 5 18 10 8 12 4 12 -15 0z"/>
<path d="M4540 1980 c-9 -6 -10 -10 -3 -10 6 0 15 5 18 10 8 12 4 12 -15 0z"/>
<path d="M4667 1971 c-4 -17 -3 -21 5 -13 5 5 8 16 6 23 -3 8 -7 3 -11 -10z"/>
<path d="M4890 1980 c0 -5 5 -10 10 -10 6 0 10 5 10 10 0 6 -4 10 -10 10 -5 0
-10 -4 -10 -10z"/>
<path d="M4950 1980 c0 -5 5 -10 10 -10 6 0 10 5 10 10 0 6 -4 10 -10 10 -5 0
-10 -4 -10 -10z"/>
<path d="M5110 1980 c0 -5 5 -10 10 -10 6 0 10 5 10 10 0 6 -4 10 -10 10 -5 0
-10 -4 -10 -10z"/>
<path d="M6717 1984 c-3 -3 -3 -13 0 -21 5 -12 7 -12 14 -1 15 23 4 40 -14 22z"/>
<path d="M6821 1974 c0 -11 3 -14 6 -6 3 7 2 16 -1 19 -3 4 -6 -2 -5 -13z"/>
<path d="M6947 1979 c7 -7 15 -10 18 -7 3 3 -2 9 -12 12 -14 6 -15 5 -6 -5z"/>
<path d="M7000 1977 c0 -9 -6 -16 -12 -14 -8 1 -13 -8 -13 -20 0 -13 4 -23 9
-22 5 0 13 -5 18 -13 8 -10 9 -10 5 2 -2 8 -10 14 -16 13 -6 -2 -11 6 -11 18
0 11 5 17 10 14 11 -7 26 22 16 32 -3 4 -6 -1 -6 -10z"/>
<path d="M7115 1981 c3 -2 -3 -9 -12 -16 -13 -10 -14 -13 -2 -20 8 -5 11 -4 6
0 -4 5 5 16 20 26 25 16 25 18 5 16 -11 0 -19 -3 -17 -6z"/>
<path d="M7166 1982 c-3 -5 1 -9 9 -9 8 0 15 4 15 9 0 4 -4 8 -9 8 -6 0 -12
-4 -15 -8z"/>
<path d="M7206 1982 c-3 -5 1 -9 9 -9 8 0 15 4 15 9 0 4 -4 8 -9 8 -6 0 -12
-4 -15 -8z"/>
<path d="M7270 1981 c0 -10 19 -25 25 -20 1 2 -3 10 -11 17 -8 7 -14 8 -14 3z"/>
<path d="M7635 1982 c3 -3 -1 -12 -7 -21 -8 -10 -4 -9 10 3 26 23 26 23 7 23
-8 0 -13 -3 -10 -5z"/>
<path d="M7755 1979 c-3 -4 2 -6 10 -5 21 3 28 13 10 13 -9 0 -18 -4 -20 -8z"/>
<path d="M5070 1976 c0 -3 9 -10 20 -16 11 -6 20 -8 20 -6 0 3 -9 10 -20 16
-11 6 -20 8 -20 6z"/>
<path d="M7030 1969 c0 -5 5 -7 10 -4 6 3 10 8 10 11 0 2 -4 4 -10 4 -5 0 -10
-5 -10 -11z"/>
<path d="M7067 1969 c-9 -6 -14 -15 -11 -21 5 -7 -2 -9 -20 -4 -14 3 -26 2
-26 -2 0 -5 12 -9 28 -8 15 1 26 5 24 9 -2 5 5 15 15 23 21 16 16 18 -10 3z"/>
<path d="M5035 1960 c-3 -5 -3 -10 2 -10 4 0 1 -5 -7 -11 -13 -9 -13 -10 0 -6
8 2 14 10 12 17 -2 8 3 10 13 6 9 -3 13 -2 10 4 -8 13 -22 13 -30 0z"/>
<path d="M5374 1959 c-5 -9 -2 -10 10 -6 13 5 17 3 13 -6 -3 -8 -1 -20 4 -28
5 -9 7 -5 6 15 -2 31 -20 45 -33 25z"/>
<path d="M6660 1960 c0 -5 5 -10 11 -10 5 0 7 5 4 10 -3 6 -8 10 -11 10 -2 0
-4 -4 -4 -10z"/>
<path d="M7134 1959 c-4 -8 -3 -9 4 -5 15 9 15 1 1 -27 -10 -21 -10 -21 5 -3
9 11 16 23 16 27 0 14 -19 19 -26 8z"/>
<path d="M7519 1953 c-13 -16 -12 -17 4 -4 9 7 17 15 17 17 0 8 -8 3 -21 -13z"/>
<path d="M4639 1958 c-5 -18 -6 -38 -1 -34 7 8 12 36 6 36 -2 0 -4 -1 -5 -2z"/>
<path d="M4734 1941 c0 -11 5 -17 13 -14 10 4 11 9 2 19 -15 18 -15 18 -15 -5z"/>
<path d="M4986 1944 c-9 -24 -2 -26 12 -4 7 11 8 20 3 20 -5 0 -12 -7 -15 -16z"/>
<path d="M5241 1944 c0 -11 3 -14 6 -6 3 7 2 16 -1 19 -3 4 -6 -2 -5 -13z"/>
<path d="M5270 1950 c0 -5 5 -10 10 -10 6 0 10 5 10 10 0 6 -4 10 -10 10 -5 0
-10 -4 -10 -10z"/>
<path d="M5302 1939 c-7 -12 -11 -23 -8 -26 3 -3 8 2 12 11 3 9 10 13 15 10 5
-3 6 2 3 10 -8 20 -7 20 -22 -5z"/>
<path d="M6694 1951 c4 -5 1 -12 -4 -14 -6 -3 -5 -4 2 -3 15 3 23 26 8 26 -6
0 -9 -4 -6 -9z"/>
<path d="M7187 1947 c-3 -8 1 -14 8 -14 7 0 11 6 8 14 -3 7 -6 13 -8 13 -2 0
-5 -6 -8 -13z"/>
<path d="M7230 1956 c0 -2 7 -9 15 -16 13 -11 14 -10 9 4 -5 14 -24 23 -24 12z"/>
<path d="M7454 1939 c0 -13 3 -15 13 -7 7 6 13 12 13 13 0 2 -6 5 -13 8 -7 3
-13 -3 -13 -14z"/>
<path d="M4011 1947 c2 -1 13 -9 24 -17 19 -14 19 -14 6 3 -7 9 -18 17 -24 17
-6 0 -8 -1 -6 -3z"/>
<path d="M4186 1938 c3 -5 10 -6 15 -3 13 9 11 12 -6 12 -8 0 -12 -4 -9 -9z"/>
<path d="M4512 1945 c3 -3 16 -8 28 -10 12 -2 20 -1 16 2 -4 4 -16 8 -28 10
-12 2 -19 1 -16 -2z"/>
<path d="M4593 1933 c0 -11 7 -20 14 -20 10 0 10 4 1 16 -7 9 -13 18 -15 20
-1 2 -1 -5 0 -16z"/>
<path d="M4680 1945 c0 -2 6 -8 13 -14 10 -8 14 -7 14 2 0 8 -6 14 -14 14 -7
0 -13 -1 -13 -2z"/>
<path d="M4790 1941 c0 -6 4 -13 10 -16 6 -3 7 1 4 9 -7 18 -14 21 -14 7z"/>
<path d="M5075 1941 c-3 -5 -2 -12 3 -15 5 -3 9 1 9 9 0 17 -3 19 -12 6z"/>
<path d="M5137 1933 c5 -15 3 -16 -8 -5 -7 6 -17 12 -23 12 -5 0 -1 -6 9 -14
11 -8 23 -12 27 -10 11 7 10 34 -2 34 -5 0 -7 -8 -3 -17z"/>
<path d="M5425 1938 c1 -7 8 -12 14 -10 6 1 11 -2 11 -8 0 -5 5 -10 11 -10 8
0 8 5 -1 15 -7 8 -16 13 -20 10 -5 -3 -11 0 -13 5 -3 6 -4 5 -2 -2z"/>
<path d="M5470 1940 c0 -5 7 -7 16 -3 14 5 15 3 6 -14 -13 -23 9 -63 34 -63 8
0 13 -6 12 -12 -2 -7 4 -13 12 -13 10 0 14 9 13 28 -2 24 0 27 13 17 25 -22
15 -4 -18 32 -31 32 -88 51 -88 28z m69 -22 c18 -29 24 -78 10 -78 -5 0 -7 5
-4 10 3 6 -5 14 -18 19 -30 12 -38 30 -23 54 14 22 18 22 35 -5z"/>
<path d="M5519 1902 c9 -7 10 -11 2 -15 -7 -4 -8 -5 0 -3 15 2 13 20 -3 24
-10 3 -10 2 1 -6z"/>
<path d="M6734 1938 c-3 -5 1 -17 10 -27 19 -21 21 -32 4 -28 -8 1 -13 -8 -13
-20 0 -13 4 -23 8 -22 5 0 14 -7 21 -17 13 -18 36 -12 36 9 0 7 -4 6 -10 -3
-9 -13 -12 -13 -21 3 -6 9 -14 15 -20 12 -5 -4 -9 3 -9 15 0 12 4 19 9 15 15
-9 24 14 11 30 -8 10 -6 17 10 28 21 14 21 15 -5 15 -14 0 -28 -5 -31 -10z
m26 -2 c0 -3 -4 -8 -10 -11 -5 -3 -10 -1 -10 4 0 6 5 11 10 11 6 0 10 -2 10
-4z"/>
<path d="M6811 1939 c8 -5 10 -9 5 -9 -6 0 -5 -5 2 -12 8 -8 15 -8 26 2 21 16
13 28 -20 28 -18 0 -22 -3 -13 -9z m34 -9 c-3 -5 -11 -10 -16 -10 -6 0 -7 5
-4 10 3 6 11 10 16 10 6 0 7 -4 4 -10z"/>
<path d="M6890 1940 c0 -5 5 -10 10 -10 6 0 10 5 10 10 0 6 -4 10 -10 10 -5 0
-10 -4 -10 -10z"/>
<path d="M7553 1933 c0 -11 7 -20 14 -20 10 0 10 4 1 16 -7 9 -13 18 -15 20
-1 2 -1 -5 0 -16z"/>
<path d="M8205 1940 c-3 -6 1 -7 9 -4 18 7 21 14 7 14 -6 0 -13 -4 -16 -10z"/>
<path d="M4959 1933 c-1 -5 -1 -12 0 -17 1 -5 -5 -6 -14 -2 -10 3 -14 2 -10
-5 9 -14 28 -6 31 14 1 9 0 17 -2 17 -2 0 -5 -3 -5 -7z"/>
<path d="M5354 1933 c15 -4 16 -7 5 -15 -11 -8 -10 -9 4 -4 11 3 17 0 17 -9 0
-8 5 -15 11 -15 19 0 -17 45 -37 47 -18 2 -18 2 0 -4z"/>
<path d="M6870 1933 c0 -6 8 -17 18 -24 16 -13 16 -13 2 6 -8 11 -16 22 -17
24 -2 2 -3 0 -3 -6z"/>
<path d="M7115 1929 c-4 -6 -5 -12 -2 -15 2 -3 7 2 10 11 7 17 1 20 -8 4z"/>
<path d="M4136 1922 c-3 -5 1 -9 9 -9 8 0 12 4 9 9 -3 4 -7 8 -9 8 -2 0 -6 -4
-9 -8z"/>
<path d="M5054 1922 c3 -5 2 -12 -4 -14 -5 -2 -6 -9 -1 -16 6 -10 10 -9 14 7
3 12 0 24 -5 28 -6 3 -8 1 -4 -5z"/>
<path d="M5148 1908 c-10 -10 -14 -18 -9 -18 10 0 36 29 30 34 -2 1 -12 -6
-21 -16z"/>
<path d="M5256 1922 c-3 -5 -4 -17 -2 -28 3 -20 42 -29 53 -11 3 6 1 7 -5 3
-5 -3 -13 0 -15 6 -4 10 -6 10 -6 1 -2 -21 -17 -15 -18 7 -1 13 2 18 9 14 7
-4 8 -2 4 4 -8 14 -13 15 -20 4z"/>
<path d="M6433 1910 c-6 -22 -18 -26 -28 -10 -8 13 -25 13 -25 -1 0 -5 5 -7
10 -4 6 3 13 -1 16 -9 8 -20 39 -1 41 25 2 25 -7 24 -14 -1z"/>
<path d="M6705 1920 c-7 -12 2 -30 16 -30 5 0 9 5 9 11 0 5 -5 7 -12 3 -8 -5
-9 -2 -5 9 7 19 2 23 -8 7z"/>
<path d="M6775 1920 c-3 -5 -2 -10 4 -10 5 0 13 5 16 10 3 6 2 10 -4 10 -5 0
-13 -4 -16 -10z"/>
<path d="M7156 1913 c-6 -14 -5 -15 5 -6 7 7 10 15 7 18 -3 3 -9 -2 -12 -12z"/>
<path d="M7388 1923 c7 -3 16 -2 19 1 4 3 -2 6 -13 5 -11 0 -14 -3 -6 -6z"/>
<path d="M7479 1913 c-13 -16 -12 -17 4 -4 16 13 21 21 13 21 -2 0 -10 -8 -17
-17z"/>
<path d="M7600 1920 c-9 -6 -10 -10 -3 -10 6 0 15 5 18 10 8 12 4 12 -15 0z"/>
<path d="M8056 1922 c-3 -5 1 -9 9 -9 8 0 12 4 9 9 -3 4 -7 8 -9 8 -2 0 -6 -4
-9 -8z"/>
<path d="M4759 1918 c-6 -12 -5 -48 1 -48 4 0 7 11 6 25 -1 22 -3 30 -7 23z"/>
<path d="M4810 1910 c-9 -6 -10 -10 -3 -10 6 0 15 5 18 10 8 12 4 12 -15 0z"/>
<path d="M5331 1912 c-1 -8 -6 -10 -13 -6 -10 5 -10 4 -1 -6 15 -16 28 -8 20
12 -4 11 -6 11 -6 0z"/>
<path d="M6663 1913 c-7 -2 -13 -9 -13 -14 0 -6 4 -8 9 -5 5 3 11 -1 15 -9 6
-16 -32 -48 -46 -39 -4 3 -11 -2 -14 -10 -3 -9 -9 -14 -13 -12 -4 3 -8 -5 -8
-17 -2 -18 1 -17 17 8 11 17 20 26 20 22 0 -4 10 -2 23 5 12 7 29 12 37 13 8
0 15 6 15 13 0 6 -4 12 -9 11 -15 -1 -26 25 -13 33 13 8 -1 9 -20 1z m37 -43
c0 -5 -5 -10 -11 -10 -5 0 -7 5 -4 10 3 6 8 10 11 10 2 0 4 -4 4 -10z"/>
<path d="M7090 1912 c0 -7 -5 -10 -12 -6 -7 4 -8 3 -4 -5 4 -6 12 -9 17 -6 5
4 9 1 9 -6 0 -7 3 -10 6 -6 3 3 1 14 -5 24 -6 11 -11 13 -11 5z"/>
<path d="M7243 1900 c-9 -14 -10 -21 -1 -26 7 -5 8 -3 3 6 -6 10 -4 12 7 7 12
-4 14 -1 11 14 -6 23 -6 23 -20 -1z"/>
<path d="M7331 1904 c0 -11 3 -14 6 -6 3 7 2 16 -1 19 -3 4 -6 -2 -5 -13z"/>
<path d="M7415 1910 c-4 -6 -10 -8 -15 -5 -4 3 -7 -3 -5 -12 1 -10 -5 -27 -14
-38 -16 -20 -16 -20 7 -1 12 11 20 21 17 24 -3 3 2 14 12 24 9 10 13 18 10 18
-3 0 -9 -5 -12 -10z"/>
<path d="M3627 1899 c7 -7 15 -10 18 -7 3 3 -2 9 -12 12 -14 6 -15 5 -6 -5z"/>
<path d="M4640 1906 c0 -2 8 -10 18 -17 15 -13 16 -12 3 4 -13 16 -21 21 -21
13z"/>
<path d="M4975 1899 c-6 -8 -4 -10 5 -4 10 6 12 4 6 -11 -6 -15 -5 -17 5 -6 9
9 10 15 2 23 -8 8 -13 7 -18 -2z"/>
<path d="M5180 1895 c0 -8 2 -15 4 -15 2 0 6 7 10 15 3 8 1 15 -4 15 -6 0 -10
-7 -10 -15z"/>
<path d="M5221 1896 c-9 -11 -9 -16 0 -22 7 -4 9 -3 5 4 -3 5 0 12 6 15 7 2
10 7 7 11 -3 4 -12 0 -18 -8z"/>
<path d="M5416 1894 c-4 -11 1 -18 14 -21 11 -3 20 -9 20 -14 0 -5 5 -9 11 -9
8 0 8 5 -1 15 -7 8 -19 15 -27 15 -8 0 -12 4 -8 10 3 5 13 7 23 4 14 -5 15 -4
2 5 -20 15 -27 14 -34 -5z"/>
<path d="M6797 1903 c-4 -3 -7 -11 -7 -17 0 -6 5 -5 12 2 6 6 9 14 7 17 -3 3
-9 2 -12 -2z"/>
<path d="M6850 1906 c0 -2 7 -7 16 -10 8 -3 12 -2 9 4 -6 10 -25 14 -25 6z"/>
<path d="M7350 1906 c0 -2 7 -7 16 -10 8 -3 12 -2 9 4 -6 10 -25 14 -25 6z"/>
<path d="M7499 1893 c-13 -16 -12 -17 4 -4 16 13 21 21 13 21 -2 0 -10 -8 -17
-17z"/>
<path d="M8019 1908 c-5 -18 -6 -38 -1 -34 7 8 12 36 6 36 -2 0 -4 -1 -5 -2z"/>
<path d="M4513 1885 c0 -8 4 -12 9 -9 5 3 6 10 3 15 -9 13 -12 11 -12 -6z"/>
<path d="M5110 1891 c0 -7 -5 -9 -12 -5 -7 4 -10 3 -5 -1 4 -5 18 -10 30 -12
12 -2 18 0 12 5 -5 4 -13 11 -17 16 -5 5 -8 4 -8 -3z"/>
<path d="M7021 1897 c2 -1 11 -8 21 -15 12 -10 18 -10 24 -1 4 8 3 9 -4 5 -7
-4 -12 -2 -12 3 0 6 -7 11 -17 11 -9 0 -14 -1 -12 -3z"/>
<path d="M7186 1883 c-6 -14 -5 -15 5 -6 7 7 10 15 7 18 -3 3 -9 -2 -12 -12z"/>
<path d="M4295 1880 c-3 -5 -1 -10 4 -10 6 0 11 5 11 10 0 6 -2 10 -4 10 -3 0
-8 -4 -11 -10z"/>
<path d="M4704 1882 c4 -3 14 -7 22 -8 9 -1 13 0 10 4 -4 3 -14 7 -22 8 -9 1
-13 0 -10 -4z"/>
<path d="M5070 1881 c0 -6 4 -13 10 -16 6 -3 7 1 4 9 -7 18 -14 21 -14 7z"/>
<path d="M5156 1874 c-3 -9 -2 -22 2 -31 6 -10 9 -5 9 16 0 35 -2 38 -11 15z"/>
<path d="M5350 1880 c0 -5 5 -10 10 -10 6 0 10 5 10 10 0 6 -4 10 -10 10 -5 0
-10 -4 -10 -10z"/>
<path d="M5470 1882 c0 -5 7 -16 16 -23 15 -12 14 -14 -7 -20 -23 -7 -23 -7
-2 -8 31 -1 34 10 12 38 -10 13 -19 19 -19 13z"/>
<path d="M6815 1881 c-3 -6 -3 -11 2 -11 4 0 1 -5 -7 -11 -13 -9 -13 -10 0 -6
8 2 14 10 13 16 -2 6 6 11 17 11 11 0 19 -5 18 -11 -2 -6 4 -14 12 -16 12 -4
12 -3 2 5 -8 5 -12 13 -10 18 4 13 -39 17 -47 5z"/>
<path d="M6884 1879 c-5 -8 -3 -9 6 -4 10 6 12 4 7 -8 -3 -10 -2 -17 3 -17 13
0 13 27 1 35 -5 3 -13 0 -17 -6z"/>
<path d="M6950 1880 c0 -5 5 -10 10 -10 6 0 10 5 10 10 0 6 -4 10 -10 10 -5 0
-10 -4 -10 -10z"/>
<path d="M7156 1878 c5 -7 2 -9 -9 -5 -11 4 -14 2 -10 -9 4 -11 9 -12 19 -3
12 10 11 29 -2 29 -3 0 -2 -5 2 -12z"/>
<path d="M7425 1879 c-3 -4 2 -6 10 -5 21 3 28 13 10 13 -9 0 -18 -4 -20 -8z"/>
<path d="M7540 1885 c0 -2 6 -8 13 -14 10 -8 14 -7 14 2 0 8 -6 14 -14 14 -7
0 -13 -1 -13 -2z"/>
<path d="M4894 1859 c0 -12 4 -15 11 -9 6 5 23 7 38 4 15 -2 27 0 27 5 0 5 -8
8 -17 6 -10 -1 -27 1 -38 5 -16 6 -21 4 -21 -11z"/>
<path d="M5596 1865 c-9 -26 -7 -32 5 -12 6 10 9 21 6 23 -2 3 -7 -2 -11 -11z"/>
<path d="M5684 1858 c-19 -23 -19 -23 1 -7 11 9 27 19 35 22 13 5 13 6 -1 6
-9 1 -24 -9 -35 -21z"/>
<path d="M5804 1858 c-10 -12 -13 -18 -6 -14 6 4 12 2 12 -3 0 -6 5 -11 11
-11 8 0 9 4 0 13 -11 14 -5 27 11 27 5 0 7 -4 3 -9 -3 -5 -2 -12 3 -15 4 -2 9
4 9 15 2 25 -19 24 -43 -3z"/>
<path d="M6364 1858 c-10 -12 -13 -18 -6 -14 6 4 12 2 12 -3 0 -6 5 -11 11
-11 8 0 8 4 0 14 -10 11 -8 17 6 25 10 6 13 11 7 11 -6 0 -19 -10 -30 -22z"/>
<path d="M6448 1862 c-4 -12 -12 -22 -18 -22 -9 0 -9 4 1 18 11 14 11 15 0 5
-7 -6 -21 -9 -30 -6 -9 3 -5 -2 7 -12 21 -16 25 -16 39 -2 8 8 13 21 11 28 -3
8 -7 5 -10 -9z"/>
<path d="M6473 1858 c-1 -11 1 -16 5 -12 4 5 11 12 15 15 5 3 2 9 -5 12 -9 3
-14 -3 -15 -15z"/>
<path d="M6530 1869 c0 -5 -4 -7 -10 -4 -6 3 -7 -1 -4 -10 5 -11 2 -14 -12 -8
-12 4 -15 3 -10 -5 11 -18 22 -14 40 13 9 14 12 25 6 25 -5 0 -10 -5 -10 -11z"/>
<path d="M6556 1863 c-7 -17 12 -36 26 -27 4 3 7 13 7 22 -1 15 -2 15 -6 -1
-2 -9 -8 -15 -13 -12 -5 3 -7 12 -3 20 3 8 3 15 0 15 -3 0 -8 -8 -11 -17z"/>
<path d="M6630 1870 c0 -5 7 -7 15 -4 8 4 15 8 15 10 0 2 -7 4 -15 4 -8 0 -15
-4 -15 -10z"/>
<path d="M7069 1863 c-13 -16 -12 -17 4 -4 16 13 21 21 13 21 -2 0 -10 -8 -17
-17z"/>
<path d="M7519 1878 c-5 -18 -6 -38 -1 -34 7 8 12 36 6 36 -2 0 -4 -1 -5 -2z"/>
<path d="M7875 1871 c-3 -5 -2 -12 3 -15 5 -3 9 1 9 9 0 17 -3 19 -12 6z"/>
<path d="M4174 1856 c1 -8 5 -18 8 -22 4 -3 5 1 4 10 -1 8 -5 18 -8 22 -4 3
-5 -1 -4 -10z"/>
<path d="M4420 1866 c0 -2 8 -10 18 -17 15 -13 16 -12 3 4 -13 16 -21 21 -21
13z"/>
<path d="M4671 1847 c-13 -21 -12 -21 5 -5 10 10 16 20 13 22 -3 3 -11 -5 -18
-17z"/>
<path d="M5025 1859 c-3 -4 2 -6 10 -5 21 3 28 13 10 13 -9 0 -18 -4 -20 -8z"/>
<path d="M5185 1859 c-11 -16 -1 -19 13 -3 7 8 8 14 3 14 -5 0 -13 -5 -16 -11z"/>
<path d="M5232 1862 c-9 -6 -5 -12 15 -20 24 -11 26 -10 11 1 -10 8 -15 17
-11 20 9 9 1 8 -15 -1z"/>
<path d="M5310 1860 c0 -5 7 -7 15 -4 8 4 15 8 15 10 0 2 -7 4 -15 4 -8 0 -15
-4 -15 -10z"/>
<path d="M5380 1866 c0 -2 7 -6 15 -10 8 -3 15 -1 15 4 0 6 -7 10 -15 10 -8 0
-15 -2 -15 -4z"/>
<path d="M6770 1860 c0 -5 5 -10 10 -10 6 0 10 5 10 10 0 6 -4 10 -10 10 -5 0
-10 -4 -10 -10z"/>
<path d="M6927 1859 c7 -7 15 -10 18 -7 3 3 -2 9 -12 12 -14 6 -15 5 -6 -5z"/>
<path d="M6975 1860 c-3 -5 -1 -10 4 -10 6 0 11 5 11 10 0 6 -2 10 -4 10 -3 0
-8 -4 -11 -10z"/>
<path d="M7100 1866 c0 -2 8 -10 18 -17 15 -13 16 -12 3 4 -13 16 -21 21 -21
13z"/>
<path d="M7315 1861 c-3 -5 -2 -12 3 -15 5 -3 9 1 9 9 0 17 -3 19 -12 6z"/>
<path d="M7473 1853 c0 -11 7 -20 14 -20 10 0 10 4 1 16 -7 9 -13 18 -15 20
-1 2 -1 -5 0 -16z"/>
<path d="M7933 1851 c0 -11 5 -18 9 -15 4 3 5 11 1 19 -7 21 -12 19 -10 -4z"/>
<path d="M4830 1856 c0 -2 8 -10 18 -17 15 -13 16 -12 3 4 -13 16 -21 21 -21
13z"/>
<path d="M5282 1847 c16 -13 16 -15 1 -30 -9 -9 -15 -18 -12 -21 2 -2 12 7 22
20 17 22 17 23 -5 34 -20 10 -21 10 -6 -3z"/>
<path d="M5900 1845 c-13 -16 -6 -35 13 -34 9 0 9 2 0 6 -9 3 -10 10 -3 24 13
23 7 25 -10 4z"/>
<path d="M5950 1851 c0 -10 19 -25 25 -20 1 2 -3 10 -11 17 -8 7 -14 8 -14 3z"/>
<path d="M7030 1849 c0 -5 -5 -7 -12 -3 -7 4 -8 3 -4 -5 6 -9 11 -9 22 0 17
14 18 19 4 19 -5 0 -10 -5 -10 -11z"/>
<path d="M4290 1839 c0 -5 5 -7 10 -4 6 3 10 8 10 11 0 2 -4 4 -10 4 -5 0 -10
-5 -10 -11z"/>
<path d="M4999 1848 c-5 -18 -6 -38 -1 -34 7 8 12 36 6 36 -2 0 -4 -1 -5 -2z"/>
<path d="M5057 1843 c-8 -7 11 -33 24 -33 5 0 9 7 9 16 0 9 5 12 12 8 7 -5 8
-3 3 6 -6 10 -11 9 -22 -5 -12 -17 -18 -14 -14 8 1 9 -4 9 -12 0z"/>
<path d="M5124 1839 c-3 -6 -1 -16 5 -22 9 -9 10 -7 5 7 -6 15 -4 17 6 11 9
-5 11 -4 6 3 -9 15 -13 15 -22 1z"/>
<path d="M5324 1839 c-5 -8 -3 -9 6 -4 10 6 12 4 7 -8 -3 -10 -2 -17 3 -17 13
0 13 27 1 35 -5 3 -13 0 -17 -6z"/>
<path d="M5375 1839 c-4 -6 -4 -13 -1 -16 3 -4 6 -1 6 6 0 7 5 9 12 5 7 -4 8
-3 4 4 -9 15 -13 15 -21 1z"/>
<path d="M5419 1848 c-4 -15 -6 -50 -3 -41 3 7 5 15 4 19 -1 4 4 11 12 15 10
7 10 9 1 9 -7 0 -13 -1 -14 -2z"/>
<path d="M5614 1821 c1 -16 4 -27 9 -24 10 6 9 41 -2 47 -4 3 -8 -8 -7 -23z"/>
<path d="M6710 1844 c0 -5 7 -18 15 -28 8 -11 15 -16 15 -10 0 5 -7 18 -15 28
-8 11 -15 16 -15 10z"/>
<path d="M6830 1840 c0 -5 5 -10 10 -10 6 0 10 5 10 10 0 6 -4 10 -10 10 -5 0
-10 -4 -10 -10z"/>
<path d="M7075 1841 c-9 -15 15 -25 28 -12 9 9 7 10 -7 5 -13 -5 -17 -4 -12 4
4 7 5 12 2 12 -3 0 -7 -4 -11 -9z"/>
<path d="M7187 1833 c3 -7 6 -13 8 -13 1 0 7 6 13 13 8 10 6 13 -7 13 -11 0
-17 -6 -14 -13z"/>
<path d="M7594 1836 c1 -8 5 -18 8 -22 4 -3 5 1 4 10 -1 8 -5 18 -8 22 -4 3
-5 -1 -4 -10z"/>
<path d="M7676 1841 c-3 -5 2 -15 12 -22 15 -12 16 -12 5 2 -7 9 -10 19 -6 22
3 4 4 7 0 7 -3 0 -8 -4 -11 -9z"/>
<path d="M4810 1836 c0 -2 8 -10 18 -17 15 -13 16 -12 3 4 -13 16 -21 21 -21
13z"/>
<path d="M5017 1821 c-4 -17 -3 -21 5 -13 5 5 8 16 6 23 -3 8 -7 3 -11 -10z"/>
<path d="M6174 1821 c2 -14 8 -27 14 -29 7 -2 10 -8 7 -13 -4 -5 1 -6 11 -2
14 5 14 7 -4 17 -11 6 -21 14 -21 19 0 4 -2 13 -5 20 -2 6 -3 1 -2 -12z"/>
<path d="M6196 1825 c7 -18 20 -19 30 -3 4 7 3 8 -4 4 -7 -4 -12 -2 -12 3 0 6
-4 11 -10 11 -5 0 -7 -7 -4 -15z"/>
<path d="M6273 1825 c4 -8 2 -17 -3 -20 -6 -4 -10 2 -10 11 0 10 -3 15 -6 11
-12 -11 5 -37 20 -31 16 6 18 44 3 44 -5 0 -7 -7 -4 -15z"/>
<path d="M6300 1837 c0 -19 22 -47 32 -41 7 5 9 1 5 -9 -3 -10 -2 -17 4 -17 6
0 9 7 7 16 -2 8 -7 14 -11 12 -5 -2 -15 8 -22 22 -8 14 -14 21 -15 17z"/>
<path d="M6670 1831 c0 -10 19 -25 25 -20 1 2 -3 10 -11 17 -8 7 -14 8 -14 3z"/>
<path d="M6948 1833 c7 -3 16 -2 19 1 4 3 -2 6 -13 5 -11 0 -14 -3 -6 -6z"/>
<path d="M6990 1833 c5 -2 8 -9 4 -14 -3 -5 0 -9 6 -9 15 0 7 23 -8 26 -7 1
-8 0 -2 -3z"/>
<path d="M7290 1837 c0 -2 6 -10 14 -16 11 -9 16 -9 22 1 4 7 4 10 -1 6 -4 -4
-14 -3 -22 3 -7 6 -13 9 -13 6z"/>
<path d="M4686 1818 c3 -5 10 -6 15 -3 13 9 11 12 -6 12 -8 0 -12 -4 -9 -9z"/>
<path d="M4756 1818 c3 -5 10 -6 15 -3 13 9 11 12 -6 12 -8 0 -12 -4 -9 -9z"/>
<path d="M4790 1823 c0 -6 8 -17 18 -24 16 -13 16 -13 2 6 -8 11 -16 22 -17
24 -2 2 -3 0 -3 -6z"/>
<path d="M4913 1823 c4 -3 1 -13 -6 -22 -11 -14 -10 -14 5 -2 16 12 16 31 1
31 -4 0 -3 -3 0 -7z"/>
<path d="M5230 1810 c-6 -11 -8 -20 -6 -20 3 0 10 9 16 20 6 11 8 20 6 20 -3
0 -10 -9 -16 -20z"/>
<path d="M5436 1815 c-9 -26 -7 -32 5 -12 6 10 9 21 6 23 -2 3 -7 -2 -11 -11z"/>
<path d="M5520 1820 c8 -5 20 -10 25 -10 6 0 3 5 -5 10 -8 5 -19 10 -25 10 -5
0 -3 -5 5 -10z"/>
<path d="M5566 1822 c-3 -5 1 -9 9 -9 8 0 15 4 15 9 0 4 -4 8 -9 8 -6 0 -12
-4 -15 -8z"/>
<path d="M5672 1816 c7 -8 15 -12 17 -11 5 6 -10 25 -20 25 -5 0 -4 -6 3 -14z"/>
<path d="M5715 1820 c-8 -13 4 -32 15 -25 5 3 10 -3 13 -12 3 -14 4 -13 3 2
-1 11 -7 19 -14 18 -16 -4 -16 14 1 20 9 4 9 6 0 6 -6 1 -15 -3 -18 -9z"/>
<path d="M5790 1823 c14 -7 12 -23 -2 -20 -8 1 -13 -8 -13 -23 0 -20 4 -24 22
-22 18 3 22 -1 17 -15 -5 -14 -4 -15 4 -3 14 19 4 33 -19 27 -14 -4 -19 0 -19
14 0 10 6 18 13 17 6 -2 12 3 12 11 0 8 -6 15 -13 17 -7 1 -8 0 -2 -3z"/>
<path d="M5835 1820 c-8 -14 4 -32 16 -24 13 8 7 -28 -6 -39 -6 -5 -4 -7 5 -4
18 4 21 53 3 50 -7 -2 -13 1 -13 6 0 5 6 12 13 14 9 4 9 6 0 6 -6 1 -15 -3
-18 -9z"/>
<path d="M5870 1825 c0 -5 5 -17 10 -25 5 -8 10 -10 10 -5 0 6 -5 17 -10 25
-5 8 -10 11 -10 5z"/>
<path d="M5990 1818 c0 -11 12 -10 30 2 12 7 10 9 -8 7 -12 0 -22 -5 -22 -9z"/>
<path d="M6116 1821 c-3 -4 0 -13 6 -21 8 -12 9 -11 4 3 -5 15 -2 17 14 12 11
-4 20 -3 20 2 0 11 -38 14 -44 4z"/>
<path d="M6345 1820 c3 -5 11 -10 16 -10 6 0 7 5 4 10 -3 6 -11 10 -16 10 -6
0 -7 -4 -4 -10z"/>
<path d="M6391 1820 c-9 -5 -4 -7 13 -7 29 0 32 2 13 10 -8 3 -20 2 -26 -3z"/>
<path d="M6445 1820 c-3 -6 1 -7 9 -4 18 7 21 14 7 14 -6 0 -13 -4 -16 -10z"/>
<path d="M6530 1820 c0 -5 5 -10 10 -10 6 0 10 5 10 10 0 6 -4 10 -10 10 -5 0
-10 -4 -10 -10z"/>
<path d="M6644 1815 c-4 -8 -10 -13 -15 -10 -14 9 -33 -35 -19 -49 8 -8 9 -6
4 8 -5 13 -4 17 4 12 8 -5 10 -1 5 10 -4 11 -3 15 5 10 6 -3 16 3 22 14 6 11
8 20 5 20 -3 0 -8 -7 -11 -15z"/>
<path d="M7170 1821 c0 -6 4 -13 10 -16 6 -3 7 1 4 9 -7 18 -14 21 -14 7z"/>
<path d="M7337 1811 c-10 -13 -10 -14 3 -5 8 6 23 10 32 9 10 -2 20 0 22 4 9
14 -45 6 -57 -8z"/>
<path d="M8126 1818 c3 -5 10 -6 15 -3 13 9 11 12 -6 12 -8 0 -12 -4 -9 -9z"/>
<path d="M5468 1808 c-12 -9 -13 -19 -7 -33 l9 -20 -3 20 c-1 11 4 25 13 32 8
7 12 13 9 13 -3 0 -12 -6 -21 -12z"/>
<path d="M6870 1810 c8 -5 20 -10 25 -10 6 0 3 5 -5 10 -8 5 -19 10 -25 10 -5
0 -3 -5 5 -10z"/>
<path d="M7146 1803 c-6 -14 -5 -15 5 -6 7 7 10 15 7 18 -3 3 -9 -2 -12 -12z"/>
<path d="M4299 1808 c-5 -18 -6 -38 -1 -34 7 8 12 36 6 36 -2 0 -4 -1 -5 -2z"/>
<path d="M5313 1795 c0 -8 4 -12 9 -9 5 3 6 10 3 15 -9 13 -12 11 -12 -6z"/>
<path d="M5376 1797 c3 -10 9 -15 12 -12 3 3 0 11 -7 18 -10 9 -11 8 -5 -6z"/>
<path d="M5495 1801 c-3 -5 0 -13 6 -17 8 -4 9 -3 5 4 -11 19 5 14 21 -5 13
-16 13 -16 3 5 -11 23 -25 28 -35 13z"/>
<path d="M5654 1795 c-4 -8 -11 -12 -16 -9 -6 4 -5 -3 2 -15 9 -18 30 -21 30
-5 0 3 -4 2 -10 -1 -13 -8 -13 1 0 26 6 10 8 19 5 19 -3 0 -8 -7 -11 -15z"/>
<path d="M6234 1786 c3 -16 8 -31 11 -35 3 -3 4 7 1 23 -3 16 -8 31 -11 35 -3
3 -4 -7 -1 -23z"/>
<path d="M6459 1808 c-8 -34 -8 -51 0 -38 5 8 7 18 5 22 -3 4 4 8 16 8 12 0
19 -4 16 -8 -2 -4 0 -14 5 -22 7 -11 8 -8 6 10 -3 17 -11 26 -25 28 -12 2 -22
2 -23 0z"/>
<path d="M6750 1800 c0 -5 5 -10 11 -10 5 0 7 5 4 10 -3 6 -8 10 -11 10 -2 0
-4 -4 -4 -10z"/>
<path d="M6792 1801 c-11 -7 -11 -9 0 -14 9 -3 15 1 15 9 0 8 -1 14 -1 14 -1
0 -7 -4 -14 -9z"/>
<path d="M6948 1803 c6 -2 18 -2 25 0 6 3 1 5 -13 5 -14 0 -19 -2 -12 -5z"/>
<path d="M7039 1808 c-7 -24 -4 -40 9 -50 15 -11 15 -11 6 2 -6 8 -10 23 -9
33 3 13 -2 26 -6 15z"/>
<path d="M7469 1797 c6 -8 7 -18 3 -22 -4 -5 -1 -5 6 -1 10 6 10 11 1 22 -6 8
-14 14 -16 14 -3 0 0 -6 6 -13z"/>
<path d="M7894 1796 c1 -8 5 -18 8 -22 4 -3 5 1 4 10 -1 8 -5 18 -8 22 -4 3
-5 -1 -4 -10z"/>
<path d="M4115 1791 c-3 -5 -2 -12 3 -15 5 -3 9 1 9 9 0 17 -3 19 -12 6z"/>
<path d="M4924 1778 c-12 -14 -13 -18 -3 -10 9 6 18 10 21 7 2 -3 5 2 5 10 0
19 0 19 -23 -7z"/>
<path d="M4973 1785 c0 -8 3 -13 5 -10 3 3 12 -1 21 -7 10 -8 9 -4 -3 10 -23
26 -23 26 -23 7z"/>
<path d="M5099 1788 c7 -9 9 -23 5 -30 -6 -10 -4 -11 7 0 11 10 10 15 -6 30
-17 15 -18 15 -6 0z"/>
<path d="M5173 1785 c0 -8 5 -11 10 -8 7 4 8 -1 3 -12 -5 -15 -4 -16 9 -5 8 7
15 17 15 23 0 6 -3 7 -7 4 -3 -4 -11 -2 -18 3 -8 7 -12 5 -12 -5z"/>
<path d="M5340 1796 c0 -2 7 -7 16 -10 8 -3 12 -2 9 4 -6 10 -25 14 -25 6z"/>
<path d="M5553 1774 c0 -17 2 -22 7 -13 5 6 6 18 3 26 -8 19 -10 16 -10 -13z"/>
<path d="M5590 1794 c0 -5 6 -18 13 -29 12 -15 15 -16 22 -4 5 8 4 10 0 6 -5
-4 -15 3 -22 15 -7 13 -12 18 -13 12z"/>
<path d="M5910 1790 c-13 -8 -12 -10 3 -10 9 0 17 5 17 10 0 12 -1 12 -20 0z"/>
<path d="M6070 1789 c0 -5 5 -7 10 -4 6 3 10 8 10 11 0 2 -4 4 -10 4 -5 0 -10
-5 -10 -11z"/>
<path d="M6096 1785 c-3 -8 -1 -15 4 -15 6 0 10 7 10 15 0 8 -2 15 -4 15 -2 0
-6 -7 -10 -15z"/>
<path d="M6370 1785 c0 -8 4 -15 10 -15 5 0 7 7 4 15 -4 8 -8 15 -10 15 -2 0
-4 -7 -4 -15z"/>
<path d="M6395 1790 c3 -5 8 -10 11 -10 2 0 4 5 4 10 0 6 -5 10 -11 10 -5 0
-7 -4 -4 -10z"/>
<path d="M6431 1784 c0 -11 3 -14 6 -6 3 7 2 16 -1 19 -3 4 -6 -2 -5 -13z"/>
<path d="M7061 1784 c0 -11 3 -14 6 -6 3 7 2 16 -1 19 -3 4 -6 -2 -5 -13z"/>
<path d="M7424 1778 c-12 -14 -13 -18 -3 -10 9 6 18 10 21 7 2 -3 5 2 5 10 0
19 0 19 -23 -7z"/>
<path d="M5676 1778 c3 -4 11 -5 19 -1 21 7 19 12 -4 10 -11 0 -18 -5 -15 -9z"/>
<path d="M5810 1786 c0 -2 7 -7 16 -10 8 -3 12 -2 9 4 -6 10 -25 14 -25 6z"/>
<path d="M5947 1779 c7 -9 10 -19 6 -22 -3 -4 -1 -7 5 -7 17 0 15 16 -5 31
-16 12 -17 12 -6 -2z"/>
<path d="M6040 1775 c-7 -9 -11 -17 -9 -20 3 -2 10 5 17 15 14 24 10 26 -8 5z"/>
<path d="M6135 1780 c-3 -5 -3 -10 2 -11 4 -1 -3 -5 -17 -10 l-25 -8 25 2 c14
1 24 6 22 12 -2 5 5 12 15 16 16 7 16 8 1 8 -9 1 -20 -3 -23 -9z"/>
<path d="M6290 1780 c0 -5 5 -10 10 -10 6 0 10 5 10 10 0 6 -4 10 -10 10 -5 0
-10 -4 -10 -10z"/>
<path d="M6673 1775 c0 -7 7 -11 15 -7 11 4 13 1 7 -8 -5 -9 -4 -11 3 -6 16
10 15 14 -6 25 -14 7 -19 6 -19 -4z"/>
<path d="M6950 1785 c0 -7 30 -13 34 -7 3 4 -4 9 -15 9 -10 1 -19 0 -19 -2z"/>
<path d="M7160 1785 c0 -2 6 -8 13 -14 10 -8 14 -7 14 2 0 8 -6 14 -14 14 -7
0 -13 -1 -13 -2z"/>
<path d="M7244 1782 c4 -3 14 -7 22 -8 9 -1 13 0 10 4 -4 3 -14 7 -22 8 -9 1
-13 0 -10 -4z"/>
<path d="M7817 1775 c-4 -8 -3 -16 1 -19 4 -3 9 4 9 15 2 23 -3 25 -10 4z"/>
<path d="M4830 1776 c0 -2 8 -10 18 -17 15 -13 16 -12 3 4 -13 16 -21 21 -21
13z"/>
<path d="M5071 1767 c-8 -10 -7 -14 2 -14 8 0 14 6 14 14 0 7 -1 13 -2 13 -2
0 -8 -6 -14 -13z"/>
<path d="M6540 1776 c0 -2 7 -6 15 -10 8 -3 15 -1 15 4 0 6 -7 10 -15 10 -8 0
-15 -2 -15 -4z"/>
<path d="M4415 1760 c-3 -5 -1 -10 4 -10 6 0 11 5 11 10 0 6 -2 10 -4 10 -3 0
-8 -4 -11 -10z"/>
<path d="M5027 1759 c7 -7 15 -10 18 -7 3 3 -2 9 -12 12 -14 6 -15 5 -6 -5z"/>
<path d="M5435 1760 c-3 -5 -1 -10 4 -10 6 0 11 5 11 10 0 6 -2 10 -4 10 -3 0
-8 -4 -11 -10z"/>
<path d="M5575 1760 c-3 -6 1 -13 9 -16 9 -3 13 -11 9 -17 -4 -6 -1 -7 7 -2
10 6 10 11 -3 20 -9 7 -14 15 -10 18 3 4 4 7 0 7 -3 0 -9 -5 -12 -10z"/>
<path d="M5700 1766 c0 -2 7 -6 15 -10 8 -3 15 -1 15 4 0 6 -7 10 -15 10 -8 0
-15 -2 -15 -4z"/>
<path d="M5885 1757 c-18 -14 -14 -37 8 -37 7 0 6 4 -3 10 -13 8 -12 11 5 24
11 9 17 16 14 16 -3 0 -13 -6 -24 -13z"/>
<path d="M6050 1749 c-7 -11 -10 -23 -7 -25 2 -2 9 7 15 21 14 30 7 33 -8 4z"/>
<path d="M6168 1763 c6 -2 9 -10 6 -15 -4 -7 -2 -8 5 -4 13 9 5 26 -12 25 -9
0 -8 -2 1 -6z"/>
<path d="M6213 1763 c4 -6 0 -13 -8 -17 -8 -3 -15 -11 -14 -18 0 -10 2 -10 6
0 2 6 8 10 13 7 4 -3 10 2 14 10 3 8 0 17 -6 21 -6 4 -8 3 -5 -3z"/>
<path d="M6470 1760 c0 -5 5 -10 10 -10 6 0 10 5 10 10 0 6 -4 10 -10 10 -5 0
-10 -4 -10 -10z"/>
<path d="M7151 1753 c7 -12 15 -20 18 -17 3 2 -3 12 -13 22 -17 16 -18 16 -5
-5z"/>
<path d="M4935 1749 c-4 -6 -5 -12 -2 -15 2 -3 7 2 10 11 7 17 1 20 -8 4z"/>
<path d="M5491 1753 c-1 -17 16 -25 25 -12 4 7 3 9 -4 5 -5 -3 -13 0 -15 6 -4
9 -6 10 -6 1z"/>
<path d="M6276 1743 c-6 -14 -5 -15 5 -6 7 7 10 15 7 18 -3 3 -9 -2 -12 -12z"/>
<path d="M6313 1741 c0 -11 5 -17 9 -15 5 3 6 9 3 14 -3 4 1 11 7 13 8 4 7 6
-4 6 -11 1 -16 -6 -15 -18z"/>
<path d="M6358 1753 c7 -3 16 -2 19 1 4 3 -2 6 -13 5 -11 0 -14 -3 -6 -6z"/>
<path d="M6397 1749 c7 -7 15 -10 18 -7 3 3 -2 9 -12 12 -14 6 -15 5 -6 -5z"/>
<path d="M6436 1747 c3 -10 9 -15 12 -12 3 3 0 11 -7 18 -10 9 -11 8 -5 -6z"/>
<path d="M6735 1748 c1 -7 8 -12 15 -10 7 2 10 -3 7 -11 -3 -7 1 -14 8 -14 10
0 11 5 4 19 -6 10 -14 16 -19 13 -4 -3 -11 0 -13 5 -3 6 -4 5 -2 -2z"/>
<path d="M4830 1741 c0 -6 4 -13 10 -16 6 -3 7 1 4 9 -7 18 -14 21 -14 7z"/>
<path d="M5267 1739 c7 -7 15 -10 18 -7 3 3 -2 9 -12 12 -14 6 -15 5 -6 -5z"/>
<path d="M5330 1741 c0 -6 4 -13 10 -16 6 -3 7 1 4 9 -7 18 -14 21 -14 7z"/>
<path d="M5370 1742 c0 -4 10 -9 22 -9 18 -2 20 0 8 7 -18 12 -30 13 -30 2z"/>
<path d="M5690 1739 c0 -5 5 -7 12 -3 8 5 9 1 4 -12 -5 -14 -4 -16 5 -7 6 6 8
16 5 22 -9 14 -26 14 -26 0z"/>
<path d="M5753 1728 c-2 -18 0 -20 7 -8 12 18 13 30 2 30 -4 0 -9 -10 -9 -22z"/>
<path d="M5918 1743 c7 -3 16 -2 19 1 4 3 -2 6 -13 5 -11 0 -14 -3 -6 -6z"/>
<path d="M5970 1740 c-11 -7 -11 -10 -2 -10 7 0 10 -5 6 -12 -4 -7 -3 -8 5 -4
6 4 9 11 6 16 -3 4 1 11 7 13 7 3 9 6 3 6 -5 0 -17 -4 -25 -9z"/>
<path d="M6556 1734 c-23 -23 -20 -30 4 -9 11 10 20 20 20 22 0 7 -9 2 -24
-13z"/>
<path d="M6810 1742 c0 -4 10 -9 22 -9 18 -2 20 0 8 7 -18 12 -30 13 -30 2z"/>
<path d="M6977 1731 c-10 -14 -10 -14 4 -4 9 7 18 10 21 7 3 -3 8 -1 12 4 9
16 -24 9 -37 -7z"/>
<path d="M4690 1719 c0 -5 5 -7 10 -4 6 3 10 8 10 11 0 2 -4 4 -10 4 -5 0 -10
-5 -10 -11z"/>
<path d="M5153 1707 c-1 -11 -1 -18 0 -16 2 2 8 11 15 20 9 12 9 16 -1 16 -7
0 -14 -9 -14 -20z"/>
<path d="M5627 1709 c6 -22 20 -26 20 -4 0 8 -6 16 -13 19 -7 3 -10 -2 -7 -15z"/>
<path d="M5779 1728 c0 -2 -2 -13 -3 -26 -3 -21 -2 -21 16 -5 22 20 23 24 1
16 -11 -4 -14 -3 -9 5 4 7 5 12 2 12 -3 0 -6 -1 -7 -2z"/>
<path d="M5996 1715 c-9 -26 -7 -32 5 -12 6 10 9 21 6 23 -2 3 -7 -2 -11 -11z"/>
<path d="M6230 1725 c0 -5 5 -17 10 -25 5 -8 10 -10 10 -5 0 6 -5 17 -10 25
-5 8 -10 11 -10 5z"/>
<path d="M6589 1724 c5 -3 7 -16 5 -30 -2 -13 0 -24 4 -24 14 0 8 53 -6 56 -7
1 -8 0 -3 -2z"/>
<path d="M7025 1719 c-3 -4 2 -6 10 -5 21 3 28 13 10 13 -9 0 -18 -4 -20 -8z"/>
<path d="M7104 1722 c4 -3 14 -7 22 -8 9 -1 13 0 10 4 -4 3 -14 7 -22 8 -9 1
-13 0 -10 -4z"/>
<path d="M7265 1719 c-3 -4 2 -6 10 -5 21 3 28 13 10 13 -9 0 -18 -4 -20 -8z"/>
<path d="M7615 1720 c3 -5 8 -10 11 -10 2 0 4 5 4 10 0 6 -5 10 -11 10 -5 0
-7 -4 -4 -10z"/>
<path d="M5054 1709 c-3 -6 -2 -15 3 -20 5 -5 9 -1 9 11 0 23 -2 24 -12 9z"/>
<path d="M5488 1712 c-17 -7 -17 -8 0 -18 15 -10 18 -8 18 7 0 11 0 19 -1 18
0 0 -8 -4 -17 -7z"/>
<path d="M5534 1699 c0 -14 3 -16 16 -6 8 6 16 12 18 13 1 1 -5 4 -15 6 -13 4
-19 0 -19 -13z"/>
<path d="M5821 1717 c2 -1 15 -11 28 -22 l24 -20 -14 23 c-8 12 -20 22 -28 22
-8 0 -12 -1 -10 -3z"/>
<path d="M6494 1699 c0 -13 4 -15 13 -8 7 6 18 7 24 3 7 -4 9 -3 6 3 -12 20
-43 21 -43 2z"/>
<path d="M6700 1709 c0 -5 -4 -7 -10 -4 -14 9 -12 -1 3 -13 10 -8 13 -6 14 9
1 10 0 19 -3 19 -2 0 -4 -5 -4 -11z"/>
<path d="M6846 1705 c-11 -8 -15 -15 -9 -15 6 0 16 7 23 15 16 19 11 19 -14 0z"/>
<path d="M6929 1703 c-13 -16 -12 -17 4 -4 16 13 21 21 13 21 -2 0 -10 -8 -17
-17z"/>
<path d="M6995 1710 c-4 -6 -10 -8 -14 -6 -4 3 -8 -1 -8 -9 0 -13 4 -12 19 2
18 16 22 23 14 23 -3 0 -8 -5 -11 -10z"/>
<path d="M7475 1711 c-3 -5 -2 -12 3 -15 5 -3 9 1 9 9 0 17 -3 19 -12 6z"/>
<path d="M8589 1703 c-13 -16 -12 -17 4 -4 16 13 21 21 13 21 -2 0 -10 -8 -17
-17z"/>
<path d="M4431 1693 c7 -12 15 -20 18 -17 3 2 -3 12 -13 22 -17 16 -18 16 -5
-5z"/>
<path d="M4595 1701 c-3 -5 -2 -12 3 -15 5 -3 9 1 9 9 0 17 -3 19 -12 6z"/>
<path d="M5186 1702 c-3 -5 1 -9 9 -9 8 0 15 4 15 9 0 4 -4 8 -9 8 -6 0 -12
-4 -15 -8z"/>
<path d="M5326 1698 c4 -5 9 -7 12 -4 3 3 15 -2 26 -11 21 -18 21 -18 3 3 -16
20 -52 30 -41 12z"/>
<path d="M5595 1690 c10 -11 20 -20 23 -20 3 0 -3 9 -13 20 -10 11 -20 20 -23
20 -3 0 3 -9 13 -20z"/>
<path d="M5885 1700 c-3 -6 1 -7 9 -4 18 7 21 14 7 14 -6 0 -13 -4 -16 -10z"/>
<path d="M6070 1699 c0 -5 5 -7 10 -4 6 3 10 8 10 11 0 2 -4 4 -10 4 -5 0 -10
-5 -10 -11z"/>
<path d="M6155 1700 c3 -5 8 -10 11 -10 2 0 4 5 4 10 0 6 -5 10 -11 10 -5 0
-7 -4 -4 -10z"/>
<path d="M6410 1706 c0 -2 7 -7 16 -10 8 -3 12 -2 9 4 -6 10 -25 14 -25 6z"/>
<path d="M6631 1687 c-13 -21 -12 -21 5 -5 10 10 16 20 13 22 -3 3 -11 -5 -18
-17z"/>
<path d="M6875 1700 c-3 -5 -1 -10 4 -10 6 0 11 5 11 10 0 6 -2 10 -4 10 -3 0
-8 -4 -11 -10z"/>
<path d="M6790 1696 c0 -2 8 -10 18 -17 15 -13 16 -12 3 4 -13 16 -21 21 -21
13z"/>
<path d="M4535 1681 c-3 -5 -2 -12 3 -15 5 -3 9 1 9 9 0 17 -3 19 -12 6z"/>
<path d="M4653 1669 c-2 -23 3 -25 10 -4 4 8 3 16 -1 19 -4 3 -9 -4 -9 -15z"/>
<path d="M4690 1679 c0 -5 5 -7 10 -4 6 3 10 8 10 11 0 2 -4 4 -10 4 -5 0 -10
-5 -10 -11z"/>
<path d="M4735 1680 c3 -5 8 -10 11 -10 2 0 4 5 4 10 0 6 -5 10 -11 10 -5 0
-7 -4 -4 -10z"/>
<path d="M5466 1680 c5 -8 9 -18 9 -22 0 -3 3 -9 7 -13 3 -4 5 0 4 9 -1 9 -8
22 -16 29 -10 10 -11 9 -4 -3z"/>
<path d="M5560 1675 c-7 -8 -16 -13 -20 -10 -4 2 -16 -5 -26 -18 -19 -22 -19
-22 1 -6 11 9 28 15 38 14 11 -2 16 -1 13 2 -3 4 -1 12 5 20 6 7 9 13 6 13 -2
0 -10 -7 -17 -15z"/>
<path d="M5704 1670 c0 -20 21 -20 39 0 9 11 8 11 -7 0 -18 -13 -19 -13 -14 1
3 9 1 16 -6 16 -6 0 -12 -8 -12 -17z"/>
<path d="M5948 1683 c7 -3 16 -2 19 1 4 3 -2 6 -13 5 -11 0 -14 -3 -6 -6z"/>
<path d="M6040 1675 c-11 -13 -15 -13 -21 -3 -6 9 -9 9 -9 1 0 -21 17 -23 35
-3 10 11 16 20 13 20 -3 0 -11 -7 -18 -15z"/>
<path d="M6278 1683 c7 -3 16 -2 19 1 4 3 -2 6 -13 5 -11 0 -14 -3 -6 -6z"/>
<path d="M6400 1675 c-7 -8 -16 -13 -20 -10 -5 3 -11 2 -14 -3 -10 -17 24 -8
41 10 9 10 14 18 11 18 -3 0 -11 -7 -18 -15z"/>
<path d="M6660 1686 c0 -2 8 -10 18 -17 15 -13 16 -12 3 4 -13 16 -21 21 -21
13z"/>
<path d="M7410 1679 c0 -5 5 -7 10 -4 6 3 10 8 10 11 0 2 -4 4 -10 4 -5 0 -10
-5 -10 -11z"/>
<path d="M5170 1677 c0 -2 6 -10 14 -16 11 -9 16 -9 22 1 4 7 4 10 -1 6 -4 -4
-14 -3 -22 3 -7 6 -13 9 -13 6z"/>
<path d="M5414 1666 c1 -8 5 -18 8 -22 4 -3 5 1 4 10 -1 8 -5 18 -8 22 -4 3
-5 -1 -4 -10z"/>
<path d="M5654 1666 c1 -8 5 -18 8 -22 4 -3 5 1 4 10 -1 8 -5 18 -8 22 -4 3
-5 -1 -4 -10z"/>
<path d="M5875 1671 c-3 -5 -2 -12 3 -15 5 -3 9 1 9 9 0 17 -3 19 -12 6z"/>
<path d="M5974 1669 c-3 -6 -2 -15 3 -20 5 -5 9 -1 9 11 0 23 -2 24 -12 9z"/>
<path d="M6204 1662 c11 -12 20 -22 20 -22 1 0 2 10 3 23 0 12 -1 16 -4 9 -4
-10 -8 -10 -21 0 -12 9 -11 6 2 -10z"/>
<path d="M6261 1665 c9 -11 15 -32 14 -48 -1 -15 1 -25 4 -22 3 4 6 22 6 40 1
19 -1 33 -3 30 -3 -3 -12 1 -21 7 -15 12 -15 11 0 -7z"/>
<path d="M6550 1655 c13 -14 26 -25 28 -25 3 0 -5 11 -18 25 -13 14 -26 25
-28 25 -3 0 5 -11 18 -25z"/>
<path d="M6773 1667 c0 -8 6 -14 14 -14 9 0 10 4 2 14 -6 7 -12 13 -14 13 -1
0 -2 -6 -2 -13z"/>
<path d="M4230 1659 c0 -5 5 -7 10 -4 6 3 10 8 10 11 0 2 -4 4 -10 4 -5 0 -10
-5 -10 -11z"/>
<path d="M6054 1658 c-4 -7 -3 -10 1 -5 5 4 18 -1 29 -10 21 -18 21 -18 2 5
-22 26 -23 26 -32 10z"/>
<path d="M6110 1658 c0 -6 3 -8 7 -5 3 4 13 1 22 -6 14 -11 14 -10 2 6 -15 20
-31 22 -31 5z"/>
<path d="M6316 1658 c3 -5 10 -6 15 -3 13 9 11 12 -6 12 -8 0 -12 -4 -9 -9z"/>
<path d="M6706 1658 c3 -5 9 -7 12 -4 3 3 12 0 21 -6 13 -10 14 -10 4 2 -15
16 -46 23 -37 8z"/>
<path d="M6890 1659 c0 -5 5 -7 10 -4 6 3 10 8 10 11 0 2 -4 4 -10 4 -5 0 -10
-5 -10 -11z"/>
<path d="M6970 1661 c0 -6 4 -13 10 -16 6 -3 7 1 4 9 -7 18 -14 21 -14 7z"/>
<path d="M7527 1659 c7 -7 15 -10 18 -7 3 3 -2 9 -12 12 -14 6 -15 5 -6 -5z"/>
<path d="M8266 1658 c3 -5 10 -6 15 -3 13 9 11 12 -6 12 -8 0 -12 -4 -9 -9z"/>
<path d="M5794 1636 c1 -14 4 -28 7 -31 3 -3 5 6 5 19 -1 14 -4 28 -7 31 -3 3
-5 -6 -5 -19z"/>
<path d="M4695 1639 c-3 -4 2 -6 10 -5 21 3 28 13 10 13 -9 0 -18 -4 -20 -8z"/>
<path d="M4935 1640 c3 -5 8 -10 11 -10 2 0 4 5 4 10 0 6 -5 10 -11 10 -5 0
-7 -4 -4 -10z"/>
<path d="M5940 1646 c0 -2 8 -10 18 -17 15 -13 16 -12 3 4 -13 16 -21 21 -21
13z"/>
<path d="M6007 1639 c7 -7 15 -10 18 -7 3 3 -2 9 -12 12 -14 6 -15 5 -6 -5z"/>
<path d="M6180 1646 c0 -2 8 -10 18 -17 15 -13 16 -12 3 4 -13 16 -21 21 -21
13z"/>
<path d="M6307 1639 c7 -7 15 -10 18 -7 3 3 -2 9 -12 12 -14 6 -15 5 -6 -5z"/>
<path d="M6431 1633 c7 -12 15 -20 18 -17 3 2 -3 12 -13 22 -17 16 -18 16 -5
-5z"/>
<path d="M7430 1645 c0 -7 30 -13 34 -7 3 4 -4 9 -15 9 -10 1 -19 0 -19 -2z"/>
<path d="M6050 1636 c0 -2 8 -10 18 -17 15 -13 16 -12 3 4 -13 16 -21 21 -21
13z"/>
<path d="M6113 1625 c0 -8 3 -13 5 -10 3 3 10 0 17 -5 8 -7 12 -5 12 5 0 8 -3
13 -5 10 -3 -3 -10 0 -17 5 -8 7 -12 5 -12 -5z"/>
<path d="M6519 1638 c-5 -18 -6 -38 -1 -34 7 8 12 36 6 36 -2 0 -4 -1 -5 -2z"/>
<path d="M7156 1627 c3 -10 9 -15 12 -12 3 3 0 11 -7 18 -10 9 -11 8 -5 -6z"/>
<path d="M4870 1619 c0 -5 5 -7 10 -4 6 3 10 8 10 11 0 2 -4 4 -10 4 -5 0 -10
-5 -10 -11z"/>
<path d="M5185 1619 c-3 -4 2 -6 10 -5 21 3 28 13 10 13 -9 0 -18 -4 -20 -8z"/>
<path d="M5240 1620 c-9 -6 -10 -10 -3 -10 6 0 15 5 18 10 8 12 4 12 -15 0z"/>
<path d="M5393 1613 c0 -9 4 -10 14 -2 7 6 13 12 13 14 0 1 -6 2 -13 2 -8 0
-14 -6 -14 -14z"/>
<path d="M5693 1613 c0 -9 4 -10 12 -3 7 5 15 7 18 3 4 -3 7 -1 7 5 0 6 -8 10
-18 9 -10 0 -19 -7 -19 -14z"/>
<path d="M6720 1620 c-9 -6 -10 -10 -3 -10 6 0 15 5 18 10 8 12 4 12 -15 0z"/>
<path d="M6926 1618 c3 -5 10 -6 15 -3 13 9 11 12 -6 12 -8 0 -12 -4 -9 -9z"/>
<path d="M7190 1619 c0 -5 5 -7 10 -4 6 3 10 8 10 11 0 2 -4 4 -10 4 -5 0 -10
-5 -10 -11z"/>
<path d="M4933 1605 c0 -8 4 -12 9 -9 5 3 6 10 3 15 -9 13 -12 11 -12 -6z"/>
<path d="M4816 1598 c3 -4 11 -5 19 -1 21 7 19 12 -4 10 -11 0 -18 -5 -15 -9z"/>
<path d="M4975 1600 c-3 -5 -1 -10 4 -10 6 0 11 5 11 10 0 6 -2 10 -4 10 -3 0
-8 -4 -11 -10z"/>
<path d="M5825 1600 c-3 -6 1 -7 9 -4 18 7 21 14 7 14 -6 0 -13 -4 -16 -10z"/>
<path d="M5866 1598 c3 -4 9 -8 15 -8 5 0 9 4 9 8 0 5 -7 9 -15 9 -8 0 -12 -4
-9 -9z"/>
<path d="M6305 1600 c-3 -6 1 -7 9 -4 18 7 21 14 7 14 -6 0 -13 -4 -16 -10z"/>
<path d="M6346 1598 c3 -4 9 -8 15 -8 5 0 9 4 9 8 0 5 -7 9 -15 9 -8 0 -12 -4
-9 -9z"/>
<path d="M6587 1599 c7 -7 15 -10 18 -7 3 3 -2 9 -12 12 -14 6 -15 5 -6 -5z"/>
<path d="M6827 1599 c7 -7 15 -10 18 -7 3 3 -2 9 -12 12 -14 6 -15 5 -6 -5z"/>
<path d="M5190 1596 c0 -2 8 -10 18 -17 15 -13 16 -12 3 4 -13 16 -21 21 -21
13z"/>
<path d="M6197 1593 c-10 -9 -9 -23 1 -23 5 0 9 7 9 15 0 17 -1 18 -10 8z"/>
<path d="M4110 1581 c0 -6 4 -13 10 -16 6 -3 7 1 4 9 -7 18 -14 21 -14 7z"/>
<path d="M5320 1580 c-9 -6 -10 -10 -3 -10 6 0 15 5 18 10 8 12 4 12 -15 0z"/>
<path d="M5735 1580 c3 -5 8 -10 11 -10 2 0 4 5 4 10 0 6 -5 10 -11 10 -5 0
-7 -4 -4 -10z"/>
<path d="M6030 1581 c0 -6 4 -13 10 -16 6 -3 7 1 4 9 -7 18 -14 21 -14 7z"/>
<path d="M6715 1580 c3 -5 8 -10 11 -10 2 0 4 5 4 10 0 6 -5 10 -11 10 -5 0
-7 -4 -4 -10z"/>
<path d="M6813 1565 c0 -8 4 -12 9 -9 5 3 6 10 3 15 -9 13 -12 11 -12 -6z"/>
<path d="M5176 1558 c3 -5 10 -6 15 -3 13 9 11 12 -6 12 -8 0 -12 -4 -9 -9z"/>
<path d="M5455 1560 c-3 -5 -1 -10 4 -10 6 0 11 5 11 10 0 6 -2 10 -4 10 -3 0
-8 -4 -11 -10z"/>
<path d="M5490 1559 c0 -5 5 -7 10 -4 6 3 10 8 10 11 0 2 -4 4 -10 4 -5 0 -10
-5 -10 -11z"/>
<path d="M6850 1559 c0 -5 5 -7 10 -4 6 3 10 8 10 11 0 2 -4 4 -10 4 -5 0 -10
-5 -10 -11z"/>
<path d="M7014 1556 c1 -8 5 -18 8 -22 4 -3 5 1 4 10 -1 8 -5 18 -8 22 -4 3
-5 -1 -4 -10z"/>
<path d="M7046 1562 c-3 -5 1 -9 9 -9 8 0 12 4 9 9 -3 4 -7 8 -9 8 -2 0 -6 -4
-9 -8z"/>
<path d="M5910 1556 c0 -2 8 -10 18 -17 15 -13 16 -12 3 4 -13 16 -21 21 -21
13z"/>
<path d="M5955 1551 c-3 -5 -2 -12 3 -15 5 -3 9 1 9 9 0 17 -3 19 -12 6z"/>
<path d="M5140 1540 c-9 -6 -10 -10 -3 -10 6 0 15 5 18 10 8 12 4 12 -15 0z"/>
<path d="M5830 1546 c0 -2 7 -7 16 -10 8 -3 12 -2 9 4 -6 10 -25 14 -25 6z"/>
<path d="M5986 1538 c3 -5 10 -6 15 -3 13 9 11 12 -6 12 -8 0 -12 -4 -9 -9z"/>
<path d="M6190 1539 c0 -5 5 -7 10 -4 6 3 10 8 10 11 0 2 -4 4 -10 4 -5 0 -10
-5 -10 -11z"/>
<path d="M6315 1540 c3 -5 8 -10 11 -10 2 0 4 5 4 10 0 6 -5 10 -11 10 -5 0
-7 -4 -4 -10z"/>
<path d="M6617 1535 c-4 -8 -3 -16 1 -19 4 -3 9 4 9 15 2 23 -3 25 -10 4z"/>
<path d="M6755 1541 c-3 -5 -2 -12 3 -15 5 -3 9 1 9 9 0 17 -3 19 -12 6z"/>
<path d="M5595 1530 c-4 -6 -11 -7 -17 -4 -7 4 -8 2 -4 -5 6 -9 11 -9 22 0 14
11 18 19 10 19 -3 0 -8 -5 -11 -10z"/>
<path d="M5733 1525 c0 -8 4 -12 9 -9 5 3 6 10 3 15 -9 13 -12 11 -12 -6z"/>
<path d="M6453 1515 c0 -8 4 -12 9 -9 5 3 6 10 3 15 -9 13 -12 11 -12 -6z"/>
<path d="M6486 1518 c3 -5 10 -6 15 -3 13 9 11 12 -6 12 -8 0 -12 -4 -9 -9z"/>
<path d="M6535 1520 c3 -5 8 -10 11 -10 2 0 4 5 4 10 0 6 -5 10 -11 10 -5 0
-7 -4 -4 -10z"/>
<path d="M5913 1505 c0 -8 4 -12 9 -9 5 3 6 10 3 15 -9 13 -12 11 -12 -6z"/>
<path d="M6736 1502 c-3 -5 1 -9 9 -9 8 0 12 4 9 9 -3 4 -7 8 -9 8 -2 0 -6 -4
-9 -8z"/>
<path d="M7590 1499 c0 -5 5 -7 10 -4 6 3 10 8 10 11 0 2 -4 4 -10 4 -5 0 -10
-5 -10 -11z"/>
<path d="M5516 1475 c-9 -26 -7 -32 5 -12 6 10 9 21 6 23 -2 3 -7 -2 -11 -11z"/>
<path d="M5795 1480 c-3 -5 -1 -10 4 -10 6 0 11 5 11 10 0 6 -2 10 -4 10 -3 0
-8 -4 -11 -10z"/>
<path d="M5955 1480 c-3 -5 -1 -10 4 -10 6 0 11 5 11 10 0 6 -2 10 -4 10 -3 0
-8 -4 -11 -10z"/>
<path d="M6215 1481 c-3 -5 -2 -12 3 -15 5 -3 9 1 9 9 0 17 -3 19 -12 6z"/>
<path d="M6430 1480 c0 -5 5 -10 11 -10 5 0 7 5 4 10 -3 6 -8 10 -11 10 -2 0
-4 -4 -4 -10z"/>
<path d="M6475 1480 c-3 -5 -1 -10 4 -10 6 0 11 5 11 10 0 6 -2 10 -4 10 -3 0
-8 -4 -11 -10z"/>
<path d="M6090 1466 c0 -2 7 -7 16 -10 8 -3 12 -2 9 4 -6 10 -25 14 -25 6z"/>
<path d="M7415 1429 c-4 -6 -5 -12 -2 -15 2 -3 7 2 10 11 7 17 1 20 -8 4z"/>
<path d="M6033 1385 c0 -8 4 -12 9 -9 5 3 6 10 3 15 -9 13 -12 11 -12 -6z"/>
</g>
</svg>
